<?xml version="1.0" encoding="utf-8"?>
<!-- Generator: Adobe Illustrator 28.7.1, SVG Export Plug-In . SVG Version: 9.03 Build 54978)  -->
<svg version="1.1" id="Layer_1" xmlns="http://www.w3.org/2000/svg" xmlns:xlink="http://www.w3.org/1999/xlink" x="0px" y="0px"
	 viewBox="0 0 420.523 264.187" style="enable-background:new 0 0 420.523 264.187;" xml:space="preserve">
<text transform="matrix(1 0 0 1 -354.3302 -138.7545)" style="font-family:'DSMarkerFelt'; font-size:12px;">the Disembodied Head</text>
<g>
	<path d="M-333.558-105.374c-0.04,0.168-0.15,0.3-0.33,0.396c-0.18,0.096-0.374,0.144-0.582,0.144c-0.392,0-0.66-0.176-0.804-0.528
		c-0.016-0.048-0.032-0.152-0.048-0.312c-0.016-0.16-0.024-0.38-0.024-0.66v-0.384c0-0.168,0-0.364,0-0.588s0.004-0.476,0.012-0.756
		c0.008-0.448,0.012-0.812,0.012-1.092c0-0.28,0-0.476,0-0.588c-0.024,0.008-0.054,0.028-0.09,0.06
		c-0.036,0.032-0.078,0.064-0.126,0.096c-0.048,0.032-0.098,0.06-0.15,0.084c-0.052,0.024-0.106,0.036-0.162,0.036
		c-0.064,0-0.168-0.02-0.312-0.06c-0.512-0.184-0.768-0.364-0.768-0.54c0-0.048,0.012-0.096,0.036-0.144
		c0.04-0.112,0.136-0.18,0.288-0.204c0.104-0.016,0.188-0.03,0.252-0.042c0.064-0.012,0.108-0.022,0.132-0.03
		c0.088-0.04,0.208-0.098,0.36-0.174s0.34-0.178,0.564-0.306v-0.96c0-0.072-0.021-0.168-0.06-0.288
		c-0.041-0.12-0.06-0.212-0.06-0.276s0.02-0.128,0.06-0.192c0.176-0.288,0.432-0.432,0.768-0.432c0.392,0,0.656,0.144,0.792,0.432
		c0.063,0.128,0.096,0.224,0.096,0.288c0,0.048-0.014,0.094-0.042,0.138s-0.058,0.09-0.09,0.138
		c-0.032,0.048-0.062,0.094-0.09,0.138c-0.028,0.044-0.042,0.086-0.042,0.126v0.552c0.064-0.032,0.13-0.074,0.198-0.126
		c0.068-0.052,0.146-0.11,0.234-0.174c0.112-0.104,0.22-0.156,0.324-0.156c0.032,0,0.072,0.008,0.12,0.024
		c0.464,0.12,0.696,0.4,0.696,0.84c0,0.136-0.042,0.266-0.126,0.39c-0.084,0.125-0.194,0.186-0.33,0.186
		c-0.032,0-0.072-0.008-0.12-0.024c-0.048-0.016-0.098-0.032-0.15-0.048c-0.052-0.016-0.104-0.032-0.156-0.048
		c-0.052-0.016-0.094-0.024-0.126-0.024c-0.056,0-0.108,0.012-0.156,0.036l-0.408,0.216v3.768c0,0.144,0.072,0.324,0.216,0.54
		c0.136,0.2,0.204,0.356,0.204,0.468C-333.546-105.403-333.55-105.383-333.558-105.374z"/>
	<path d="M-329.238-110.138c-0.128,0-0.336,0.208-0.624,0.624c-0.304,0.456-0.56,0.976-0.768,1.56
		c-0.216,0.592-0.324,1.124-0.324,1.596c0,0.032,0.002,0.064,0.006,0.096c0.004,0.032,0.006,0.064,0.006,0.096
		c-0.024,0.048-0.036,0.092-0.036,0.132c0,0.064,0.03,0.158,0.09,0.282c0.06,0.125,0.09,0.222,0.09,0.294
		c0,0.072-0.024,0.144-0.072,0.216c-0.208,0.28-0.408,0.42-0.6,0.42c-0.208,0-0.408-0.16-0.6-0.48c-0.112-0.2-0.168-1.3-0.168-3.3
		c0-0.376,0.006-0.978,0.018-1.806c0.012-0.828,0.026-1.902,0.042-3.222c0-0.04-0.004-0.106-0.012-0.198
		c-0.008-0.092-0.012-0.166-0.012-0.222c0.008-0.064,0.032-0.128,0.072-0.192c0.072-0.16,0.244-0.24,0.516-0.24
		c0.216,0,0.428,0.064,0.636,0.192c0.168,0.112,0.252,0.232,0.252,0.36c0,0.032-0.004,0.06-0.012,0.084
		c-0.008,0.04-0.044,0.09-0.108,0.15s-0.096,0.122-0.096,0.186v3.552c0.208-0.472,0.466-0.84,0.774-1.104
		c0.308-0.264,0.67-0.396,1.086-0.396h0.048c0.424,0,0.76,0.328,1.008,0.984c0.24,0.64,0.36,1.42,0.36,2.34
		c0,0.352-0.018,0.688-0.054,1.008c-0.036,0.32-0.094,0.62-0.174,0.9c0.024,0.088,0.04,0.162,0.048,0.222
		c0.008,0.06,0.012,0.102,0.012,0.126c0,0.16-0.088,0.288-0.264,0.384c-0.176,0.096-0.368,0.144-0.576,0.144
		c-0.32,0-0.524-0.116-0.612-0.348c-0.04-0.104-0.06-0.184-0.06-0.24c0-0.096,0.044-0.2,0.132-0.312
		c0.088-0.112,0.132-0.216,0.132-0.312c0.088-0.4,0.132-0.952,0.132-1.656c0-1.24-0.088-1.88-0.264-1.92H-329.238z"/>
	<path d="M-323.791-105.567c-0.056,0.088-0.256,0.196-0.6,0.324c-0.352,0.128-0.668,0.192-0.948,0.192h-0.108
		c-0.544,0-0.976-0.316-1.296-0.948c-0.288-0.552-0.432-1.228-0.432-2.028c0-0.888,0.16-1.652,0.48-2.292
		c0.36-0.728,0.844-1.132,1.452-1.212c0.064-0.008,0.122-0.014,0.174-0.018c0.052-0.004,0.106-0.006,0.162-0.006
		c0.88,0,1.364,0.54,1.452,1.62c0,0.016,0.002,0.036,0.006,0.06c0.004,0.024,0.006,0.048,0.006,0.072
		c0,0.224-0.052,0.46-0.156,0.708s-0.252,0.504-0.444,0.768c-0.48,0.648-1.084,1.096-1.812,1.344
		c0.088,0.312,0.152,0.504,0.192,0.576c0.088,0.184,0.228,0.276,0.42,0.276c0.16,0,0.34-0.068,0.54-0.204
		c0.168-0.12,0.276-0.224,0.324-0.312c0.024-0.008,0.056-0.088,0.096-0.24c0.04-0.168,0.116-0.28,0.228-0.336
		c0.048-0.024,0.1-0.036,0.156-0.036c0.168,0,0.336,0.088,0.504,0.264c0.144,0.16,0.216,0.308,0.216,0.444
		c0,0.016-0.002,0.03-0.006,0.042c-0.004,0.012-0.006,0.026-0.006,0.042C-323.255-106.178-323.455-105.879-323.791-105.567z
		 M-325.639-109.719c-0.208,0.464-0.312,0.932-0.312,1.404c0,0.041,0,0.083,0,0.126c0,0.044,0.004,0.086,0.012,0.126
		c0.344-0.112,0.664-0.368,0.96-0.768s0.444-0.764,0.444-1.092c0-0.28-0.132-0.42-0.396-0.42
		C-325.227-110.343-325.463-110.135-325.639-109.719z"/>
</g>
<g>
	<path d="M-334.429-93.95c-0.24,0-0.484-0.116-0.732-0.348c-0.224-0.216-0.336-0.44-0.336-0.672c0-0.096,0.032-0.196,0.096-0.3
		c-0.096-2.48-0.144-4.344-0.144-5.592c0-0.176,0-0.336,0-0.48s0.004-0.276,0.012-0.396c-0.152-0.248-0.228-0.436-0.228-0.564
		c0-0.176,0.1-0.328,0.3-0.456c0.176-0.128,0.36-0.192,0.552-0.192c0.16,0,0.304,0.052,0.432,0.156
		c0.968-0.376,1.608-0.564,1.92-0.564c0.168,0,0.332,0.04,0.492,0.12c0.24,0.12,0.472,0.328,0.696,0.624
		c0.128,0.168,0.228,0.336,0.3,0.504c0.072,0.168,0.108,0.336,0.108,0.504v0.12c0,0.256-0.044,0.59-0.132,1.002
		c-0.088,0.412-0.212,0.902-0.372,1.47c-0.2,0.672-0.408,1.288-0.624,1.848c-0.216,0.56-0.452,1.076-0.708,1.548
		C-333.381-94.506-333.925-93.95-334.429-93.95z M-334.093-101.27c-0.048,0.552-0.072,1.16-0.072,1.824
		c0,0.488,0.012,0.976,0.036,1.464c0.024,0.488,0.056,0.988,0.096,1.5c0.192-0.48,0.38-0.966,0.564-1.458
		c0.184-0.492,0.356-1.002,0.516-1.53c0.184-0.568,0.318-1.04,0.402-1.416s0.126-0.656,0.126-0.84c0-0.112-0.012-0.18-0.036-0.204
		c-0.08-0.088-0.176-0.132-0.288-0.132C-332.973-102.062-333.421-101.798-334.093-101.27z"/>
	<path d="M-329.065-94.214c-0.176,0.112-0.376,0.168-0.6,0.168c-0.272,0-0.468-0.096-0.588-0.288c-0.16-0.232-0.24-0.932-0.24-2.1
		c0-0.136,0-0.314,0-0.534c0-0.22,0.004-0.478,0.012-0.774c0.008-0.304,0.014-0.562,0.018-0.774
		c0.004-0.212,0.006-0.386,0.006-0.522c0-0.112-0.01-0.25-0.03-0.414c-0.021-0.164-0.03-0.282-0.03-0.354
		c0-0.248,0.088-0.456,0.264-0.624c0.072-0.08,0.208-0.12,0.408-0.12c0.2,0,0.398,0.032,0.594,0.096
		c0.196,0.064,0.322,0.136,0.378,0.216c0.056,0.096,0.084,0.176,0.084,0.24c0,0.104-0.06,0.268-0.18,0.492
		c-0.104,0.2-0.156,0.376-0.156,0.528v3.252c0,0.152,0.04,0.36,0.12,0.624c0.04,0.136,0.07,0.25,0.09,0.342
		c0.02,0.092,0.03,0.162,0.03,0.21C-328.886-94.406-328.945-94.294-329.065-94.214z M-330.505-101.498
		c0-0.048,0.022-0.116,0.066-0.204s0.066-0.164,0.066-0.228c0-0.016,0.002-0.036,0.006-0.06s0.006-0.056,0.006-0.096
		c0-0.04-0.002-0.082-0.006-0.126c-0.004-0.044-0.006-0.098-0.006-0.162v-0.072c0-0.152,0.04-0.256,0.12-0.312
		c0.128-0.088,0.336-0.132,0.624-0.132c0.328,0,0.56,0.068,0.696,0.204c0.024,0.024,0.036,0.06,0.036,0.108
		c0,0.064-0.024,0.18-0.072,0.348c-0.024,0.096-0.044,0.178-0.06,0.246c-0.016,0.068-0.028,0.122-0.036,0.162v-0.012
		c0.016,0,0.024,0.164,0.024,0.492c0,0.16-0.048,0.264-0.144,0.312s-0.212,0.072-0.348,0.072c-0.184,0-0.384-0.044-0.6-0.132
		C-330.381-101.186-330.505-101.322-330.505-101.498z"/>
	<path d="M-324.685-95.882c0,0.512-0.184,0.952-0.552,1.32c-0.384,0.36-0.82,0.54-1.308,0.54c-0.304,0-0.632-0.152-0.984-0.456
		c-0.256-0.232-0.496-0.528-0.72-0.888c-0.16-0.28-0.24-0.464-0.24-0.552v-0.036c0.088-0.184,0.344-0.276,0.768-0.276
		c0.176,0,0.316,0.028,0.42,0.084c0.184,0.104,0.28,0.224,0.288,0.36c0.024,0.168,0.064,0.276,0.12,0.324
		c0.16,0.232,0.3,0.348,0.42,0.348c0.088,0,0.176-0.064,0.264-0.192c0.088-0.128,0.132-0.28,0.132-0.456
		c0-0.104-0.02-0.216-0.06-0.336c-0.04-0.112-0.24-0.28-0.6-0.504c-0.208-0.136-0.39-0.262-0.546-0.378
		c-0.156-0.116-0.282-0.229-0.378-0.342c-0.312-0.344-0.468-0.756-0.468-1.236c0-0.544,0.16-1.024,0.48-1.44
		c0.328-0.424,0.74-0.636,1.236-0.636c0.52,0,0.916,0.196,1.188,0.588c0.192,0.28,0.288,0.556,0.288,0.828
		c0,0.024-0.002,0.046-0.006,0.066s-0.006,0.042-0.006,0.066c0.08,0.096,0.12,0.244,0.12,0.444c0,0.224-0.08,0.412-0.24,0.564
		s-0.328,0.228-0.504,0.228c-0.24,0-0.456-0.164-0.648-0.492c-0.056-0.088-0.084-0.208-0.084-0.36c0-0.064,0.006-0.158,0.018-0.282
		c0.012-0.124,0.018-0.21,0.018-0.258c0-0.192-0.068-0.288-0.204-0.288c-0.216,0-0.324,0.212-0.324,0.636
		c0,0.424,0.14,0.764,0.42,1.02c0.056,0.048,0.144,0.11,0.264,0.186c0.12,0.076,0.272,0.162,0.456,0.258
		c0.328,0.176,0.552,0.34,0.672,0.492C-324.785-96.674-324.685-96.322-324.685-95.882z"/>
	<path d="M-320.846-94.67c-0.056,0.088-0.256,0.196-0.6,0.324c-0.352,0.128-0.668,0.192-0.948,0.192h-0.108
		c-0.544,0-0.976-0.316-1.296-0.948c-0.288-0.552-0.432-1.228-0.432-2.028c0-0.888,0.16-1.652,0.48-2.292
		c0.36-0.728,0.844-1.132,1.452-1.212c0.064-0.008,0.122-0.014,0.174-0.018c0.052-0.004,0.106-0.006,0.162-0.006
		c0.88,0,1.364,0.54,1.452,1.62c0,0.016,0.002,0.036,0.006,0.06c0.004,0.024,0.006,0.048,0.006,0.072
		c0,0.224-0.052,0.46-0.156,0.708s-0.252,0.504-0.444,0.768c-0.48,0.648-1.084,1.096-1.812,1.344
		c0.088,0.312,0.152,0.504,0.192,0.576c0.088,0.184,0.228,0.276,0.42,0.276c0.16,0,0.34-0.068,0.54-0.204
		c0.168-0.12,0.276-0.224,0.324-0.312c0.024-0.008,0.056-0.088,0.096-0.24c0.04-0.168,0.116-0.28,0.228-0.336
		c0.048-0.024,0.1-0.036,0.156-0.036c0.168,0,0.336,0.088,0.504,0.264c0.144,0.16,0.216,0.308,0.216,0.444
		c0,0.016-0.002,0.03-0.006,0.042c-0.004,0.012-0.006,0.026-0.006,0.042C-320.31-95.282-320.51-94.982-320.846-94.67z
		 M-322.694-98.822c-0.208,0.464-0.312,0.932-0.312,1.404c0,0.041,0,0.083,0,0.126c0,0.044,0.004,0.086,0.012,0.126
		c0.344-0.112,0.664-0.368,0.96-0.768s0.444-0.764,0.444-1.092c0-0.28-0.132-0.42-0.396-0.42
		C-322.282-99.446-322.518-99.238-322.694-98.822z"/>
	<path d="M-318.722-94.934c-0.176,0-0.354-0.048-0.534-0.144c-0.18-0.096-0.31-0.212-0.39-0.348
		c-0.064-0.088-0.114-0.264-0.15-0.528c-0.036-0.264-0.054-0.624-0.054-1.08v-2.604c0-0.032-0.008-0.076-0.024-0.132
		c-0.016-0.056-0.036-0.114-0.06-0.174s-0.044-0.118-0.06-0.174s-0.024-0.1-0.024-0.132c0-0.063,0.02-0.124,0.06-0.18
		c0.104-0.152,0.348-0.228,0.732-0.228c0.472,0,0.756,0.12,0.852,0.36c0.024,0.048,0.036,0.1,0.036,0.156
		c0,0.032-0.01,0.074-0.03,0.126c-0.02,0.052-0.044,0.104-0.072,0.156c-0.028,0.052-0.052,0.106-0.072,0.162
		c-0.021,0.056-0.03,0.104-0.03,0.144v1.26c0.112-0.232,0.24-0.494,0.384-0.786c0.144-0.292,0.304-0.618,0.48-0.978
		c0.032-0.072,0.062-0.146,0.09-0.222c0.028-0.076,0.066-0.146,0.114-0.21c0.048-0.064,0.112-0.116,0.192-0.156
		c0.08-0.04,0.188-0.06,0.324-0.06c0.304,0,0.6,0.064,0.888,0.192c0.304,0.136,0.456,0.296,0.456,0.48v0.036
		c0,0.184-0.028,0.322-0.084,0.414c-0.056,0.092-0.084,0.17-0.084,0.234l-0.024,2.388c0.064-0.136,0.146-0.36,0.246-0.672
		s0.23-0.716,0.39-1.212c0.24-0.736,0.424-1.156,0.552-1.26c0.16-0.112,0.4-0.168,0.72-0.168c0.6,0,0.904,0.168,0.912,0.504
		c-0.008,0.232-0.012,0.494-0.012,0.786c0,0.292,0,0.63,0,1.014c0,0.376,0.002,0.788,0.006,1.236
		c0.004,0.448,0.006,0.936,0.006,1.464c0,0.072,0.076,0.172,0.228,0.3c0.144,0.12,0.216,0.24,0.216,0.36
		c0,0.056-0.012,0.124-0.036,0.204c-0.112,0.272-0.332,0.408-0.66,0.408c-0.424,0-0.74-0.148-0.948-0.444
		c-0.112-0.16-0.168-0.716-0.168-1.668v-0.576c0-0.136,0.002-0.248,0.006-0.336c0.004-0.088,0.006-0.16,0.006-0.216
		c0-0.512-0.024-0.776-0.072-0.792h-0.012c-0.12,0-0.492,1.032-1.116,3.096c0,0.008-0.004,0.054-0.012,0.138
		c-0.008,0.084-0.021,0.214-0.036,0.39c-0.016,0.208-0.088,0.352-0.216,0.432c-0.096,0.048-0.204,0.072-0.324,0.072
		c-0.216,0-0.422-0.07-0.618-0.21c-0.196-0.14-0.322-0.306-0.378-0.498c-0.064-0.256-0.096-0.696-0.096-1.32v-0.288
		c0-0.584,0.004-1.016,0.012-1.296c0.008-0.28,0.012-0.412,0.012-0.396c-0.016-0.296-0.041-0.452-0.072-0.468
		c-0.08,0.136-0.156,0.272-0.228,0.408c-0.072,0.136-0.14,0.268-0.204,0.396c-0.152,0.312-0.27,0.596-0.354,0.852
		s-0.142,0.488-0.174,0.696c-0.016,0.064-0.024,0.144-0.024,0.24c0,0.04,0.002,0.082,0.006,0.126s0.006,0.094,0.006,0.15
		c0.008,0.032,0.012,0.076,0.012,0.132c0,0.176-0.046,0.294-0.138,0.354C-318.46-94.964-318.578-94.934-318.722-94.934z"/>
	<path d="M-310.67-99.842c0.32-0.48,0.628-0.72,0.924-0.72c0.536,0,0.992,0.348,1.368,1.044c0.328,0.64,0.492,1.352,0.492,2.136
		c0,0.84-0.108,1.528-0.324,2.064c-0.272,0.688-0.716,1.032-1.332,1.032c-0.464,0-0.86-0.24-1.188-0.72
		c0.008,0.064,0.03,0.15,0.066,0.258c0.036,0.108,0.054,0.19,0.054,0.246c0,0.048-0.021,0.1-0.06,0.156
		c-0.088,0.112-0.28,0.168-0.576,0.168c-0.448,0-0.72-0.1-0.816-0.3c-0.024-0.056-0.036-0.116-0.036-0.18
		c0-0.072,0.028-0.164,0.084-0.276c0.056-0.112,0.084-0.212,0.084-0.3v-6.288c0-0.096-0.024-0.211-0.072-0.348
		c-0.048-0.136-0.072-0.248-0.072-0.336c0-0.08,0.016-0.164,0.048-0.252c0.096-0.264,0.324-0.396,0.684-0.396
		c0.448,0,0.752,0.168,0.912,0.504c0.016,0.04,0.028,0.076,0.036,0.108c0.008,0.032,0.012,0.068,0.012,0.108
		c0,0.088-0.048,0.228-0.144,0.42c-0.096,0.192-0.144,0.344-0.144,0.456V-99.842z M-309.338-97.382c0-0.456-0.044-0.872-0.132-1.248
		c-0.096-0.448-0.232-0.672-0.408-0.672c-0.144,0-0.288,0.24-0.432,0.72c-0.072,0.232-0.128,0.446-0.168,0.642
		c-0.04,0.196-0.06,0.382-0.06,0.558c0,0.432,0.068,0.876,0.204,1.332c0.144,0.48,0.296,0.72,0.456,0.72
		c0.368,0,0.552-0.416,0.552-1.248v-0.408c0-0.096-0.002-0.176-0.006-0.24C-309.336-97.29-309.338-97.342-309.338-97.382z"/>
	<path d="M-304.022-100.106c0.488,0.496,0.732,1.34,0.732,2.532c0,0.904-0.172,1.688-0.516,2.352
		c-0.376,0.728-0.912,1.092-1.608,1.092c-0.68,0-1.204-0.328-1.572-0.984c-0.16-0.288-0.28-0.612-0.36-0.972
		c-0.08-0.36-0.12-0.764-0.12-1.212c0-0.784,0.124-1.484,0.372-2.1c0.264-0.672,0.6-1.06,1.008-1.164
		c0.112-0.032,0.222-0.056,0.33-0.072s0.222-0.024,0.342-0.024C-304.87-100.658-304.406-100.474-304.022-100.106z M-306.146-97.514
		c0,0.352,0.008,0.648,0.024,0.888c0.016,0.24,0.036,0.432,0.06,0.576c0.104,0.504,0.32,0.788,0.648,0.852h0.024
		c0.2,0,0.384-0.284,0.552-0.852c0.08-0.288,0.142-0.584,0.186-0.888c0.044-0.304,0.066-0.624,0.066-0.96
		c0-1.072-0.232-1.632-0.696-1.68h-0.036c-0.224,0-0.424,0.228-0.6,0.684C-306.07-98.47-306.146-98.01-306.146-97.514z"/>
	<path d="M-300.122-101.258c0-0.064-0.01-0.132-0.03-0.204c-0.02-0.072-0.058-0.156-0.114-0.252
		c-0.096-0.192-0.144-0.332-0.144-0.42c0-0.064,0.02-0.136,0.06-0.216c0.152-0.336,0.456-0.504,0.912-0.504
		c0.36,0,0.588,0.132,0.684,0.396c0.024,0.096,0.036,0.18,0.036,0.252c0,0.088-0.024,0.2-0.072,0.336
		c-0.048,0.136-0.072,0.252-0.072,0.348v6.288c0,0.088,0.03,0.188,0.09,0.3c0.06,0.112,0.09,0.204,0.09,0.276
		c0,0.064-0.016,0.124-0.048,0.18c-0.08,0.2-0.352,0.3-0.816,0.3c-0.28,0-0.472-0.056-0.576-0.168
		c-0.032-0.064-0.048-0.116-0.048-0.156c0-0.056,0.018-0.138,0.054-0.246c0.036-0.108,0.058-0.194,0.066-0.258
		c-0.336,0.48-0.732,0.72-1.188,0.72c-0.624,0-1.072-0.344-1.344-1.032c-0.208-0.552-0.312-1.24-0.312-2.064
		c0-0.8,0.164-1.512,0.492-2.136c0.36-0.696,0.812-1.044,1.356-1.044c0.304,0,0.612,0.24,0.924,0.72V-101.258z M-300.914-99.302
		c-0.176,0-0.312,0.224-0.408,0.672c-0.04,0.184-0.07,0.38-0.09,0.588c-0.02,0.208-0.03,0.428-0.03,0.66
		c0,0.04-0.002,0.092-0.006,0.156s-0.006,0.144-0.006,0.24v0.408c0,0.832,0.18,1.248,0.54,1.248c0.168,0,0.324-0.24,0.468-0.72
		c0.128-0.432,0.192-0.876,0.192-1.332c0-0.176-0.017-0.362-0.048-0.558c-0.032-0.196-0.084-0.41-0.156-0.642
		C-300.618-99.062-300.77-99.302-300.914-99.302z"/>
	<path d="M-296.546-94.214c-0.176,0.112-0.376,0.168-0.6,0.168c-0.272,0-0.468-0.096-0.588-0.288c-0.16-0.232-0.24-0.932-0.24-2.1
		c0-0.136,0-0.314,0-0.534c0-0.22,0.004-0.478,0.012-0.774c0.008-0.304,0.014-0.562,0.018-0.774
		c0.004-0.212,0.006-0.386,0.006-0.522c0-0.112-0.01-0.25-0.03-0.414c-0.021-0.164-0.03-0.282-0.03-0.354
		c0-0.248,0.088-0.456,0.264-0.624c0.072-0.08,0.208-0.12,0.408-0.12c0.2,0,0.398,0.032,0.594,0.096
		c0.196,0.064,0.322,0.136,0.378,0.216c0.056,0.096,0.084,0.176,0.084,0.24c0,0.104-0.06,0.268-0.18,0.492
		c-0.104,0.2-0.156,0.376-0.156,0.528v3.252c0,0.152,0.04,0.36,0.12,0.624c0.04,0.136,0.07,0.25,0.09,0.342
		c0.02,0.092,0.03,0.162,0.03,0.21C-296.367-94.406-296.426-94.294-296.546-94.214z M-297.986-101.498
		c0-0.048,0.022-0.116,0.066-0.204s0.066-0.164,0.066-0.228c0-0.016,0.002-0.036,0.006-0.06s0.006-0.056,0.006-0.096
		c0-0.04-0.002-0.082-0.006-0.126c-0.004-0.044-0.006-0.098-0.006-0.162v-0.072c0-0.152,0.04-0.256,0.12-0.312
		c0.128-0.088,0.336-0.132,0.624-0.132c0.328,0,0.56,0.068,0.696,0.204c0.024,0.024,0.036,0.06,0.036,0.108
		c0,0.064-0.024,0.18-0.072,0.348c-0.024,0.096-0.044,0.178-0.06,0.246c-0.016,0.068-0.028,0.122-0.036,0.162v-0.012
		c0.016,0,0.024,0.164,0.024,0.492c0,0.16-0.048,0.264-0.144,0.312s-0.212,0.072-0.348,0.072c-0.184,0-0.384-0.044-0.6-0.132
		C-297.862-101.186-297.986-101.322-297.986-101.498z"/>
	<path d="M-292.37-94.67c-0.056,0.088-0.256,0.196-0.6,0.324c-0.352,0.128-0.668,0.192-0.948,0.192h-0.108
		c-0.544,0-0.976-0.316-1.296-0.948c-0.288-0.552-0.432-1.228-0.432-2.028c0-0.888,0.16-1.652,0.48-2.292
		c0.36-0.728,0.844-1.132,1.452-1.212c0.064-0.008,0.122-0.014,0.174-0.018c0.052-0.004,0.106-0.006,0.162-0.006
		c0.88,0,1.364,0.54,1.452,1.62c0,0.016,0.002,0.036,0.006,0.06c0.004,0.024,0.006,0.048,0.006,0.072
		c0,0.224-0.052,0.46-0.156,0.708s-0.252,0.504-0.444,0.768c-0.48,0.648-1.084,1.096-1.812,1.344
		c0.088,0.312,0.152,0.504,0.192,0.576c0.088,0.184,0.228,0.276,0.42,0.276c0.16,0,0.34-0.068,0.54-0.204
		c0.168-0.12,0.276-0.224,0.324-0.312c0.024-0.008,0.056-0.088,0.096-0.24c0.04-0.168,0.116-0.28,0.228-0.336
		c0.048-0.024,0.1-0.036,0.156-0.036c0.168,0,0.336,0.088,0.504,0.264c0.144,0.16,0.216,0.308,0.216,0.444
		c0,0.016-0.002,0.03-0.006,0.042c-0.004,0.012-0.006,0.026-0.006,0.042C-291.835-95.282-292.035-94.982-292.37-94.67z
		 M-294.219-98.822c-0.208,0.464-0.312,0.932-0.312,1.404c0,0.041,0,0.083,0,0.126c0,0.044,0.004,0.086,0.012,0.126
		c0.344-0.112,0.664-0.368,0.96-0.768s0.444-0.764,0.444-1.092c0-0.28-0.132-0.42-0.396-0.42
		C-293.806-99.446-294.043-99.238-294.219-98.822z"/>
	<path d="M-288.926-101.258c0-0.064-0.01-0.132-0.03-0.204c-0.02-0.072-0.058-0.156-0.114-0.252
		c-0.096-0.192-0.144-0.332-0.144-0.42c0-0.064,0.02-0.136,0.06-0.216c0.152-0.336,0.456-0.504,0.912-0.504
		c0.36,0,0.588,0.132,0.684,0.396c0.024,0.096,0.036,0.18,0.036,0.252c0,0.088-0.024,0.2-0.072,0.336
		c-0.048,0.136-0.072,0.252-0.072,0.348v6.288c0,0.088,0.03,0.188,0.09,0.3c0.06,0.112,0.09,0.204,0.09,0.276
		c0,0.064-0.016,0.124-0.048,0.18c-0.08,0.2-0.352,0.3-0.816,0.3c-0.28,0-0.472-0.056-0.576-0.168
		c-0.032-0.064-0.048-0.116-0.048-0.156c0-0.056,0.018-0.138,0.054-0.246c0.036-0.108,0.058-0.194,0.066-0.258
		c-0.336,0.48-0.732,0.72-1.188,0.72c-0.624,0-1.072-0.344-1.344-1.032c-0.208-0.552-0.312-1.24-0.312-2.064
		c0-0.8,0.164-1.512,0.492-2.136c0.36-0.696,0.812-1.044,1.356-1.044c0.304,0,0.612,0.24,0.924,0.72V-101.258z M-289.718-99.302
		c-0.176,0-0.312,0.224-0.408,0.672c-0.04,0.184-0.07,0.38-0.09,0.588c-0.02,0.208-0.03,0.428-0.03,0.66
		c0,0.04-0.002,0.092-0.006,0.156s-0.006,0.144-0.006,0.24v0.408c0,0.832,0.18,1.248,0.54,1.248c0.168,0,0.324-0.24,0.468-0.72
		c0.128-0.432,0.192-0.876,0.192-1.332c0-0.176-0.017-0.362-0.048-0.558c-0.032-0.196-0.084-0.41-0.156-0.642
		C-289.422-99.062-289.574-99.302-289.718-99.302z"/>
</g>
<g>
	<path d="M-335.436-84.068c0-0.016,0.028-0.092,0.084-0.228c0-0.16,0-0.368,0-0.624c0-0.256-0.004-0.564-0.012-0.924
		c-0.008-0.36-0.012-0.654-0.012-0.882s0-0.39,0-0.486c-0.008-0.016-0.032-0.062-0.072-0.138s-0.104-0.19-0.192-0.342
		c-0.08-0.144-0.12-0.268-0.12-0.372c0-0.048,0.004-0.08,0.012-0.096c0.016-0.088,0.06-0.158,0.132-0.21
		c0.072-0.052,0.144-0.102,0.216-0.15c-0.008-0.304-0.012-0.594-0.012-0.87s0-0.534,0-0.774c0-0.872,0.012-1.508,0.036-1.908
		c-0.064-0.144-0.096-0.252-0.096-0.324c0-0.168,0.112-0.304,0.336-0.408c0.048-0.024,0.106-0.04,0.174-0.048
		c0.068-0.008,0.146-0.012,0.234-0.012c0.584,0,0.936,0.152,1.056,0.456c0.016,0.04,0.024,0.096,0.024,0.168
		c0,0.104-0.064,0.26-0.192,0.468c-0.112,0.185-0.176,0.348-0.192,0.492c-0.008,0.36-0.016,0.692-0.024,0.996
		s-0.012,0.576-0.012,0.816c0,0.16,0.001,0.308,0.006,0.444c0.004,0.136,0.006,0.26,0.006,0.372c0.36-0.064,0.662-0.118,0.906-0.162
		c0.244-0.043,0.422-0.085,0.534-0.126c-0.016-0.2-0.028-0.406-0.036-0.618c-0.008-0.212-0.012-0.434-0.012-0.666
		c0-0.576,0.024-1.2,0.072-1.872c-0.04-0.096-0.066-0.18-0.078-0.252c-0.012-0.072-0.018-0.14-0.018-0.204
		c0-0.216,0.136-0.396,0.408-0.54c0.048-0.024,0.132-0.036,0.252-0.036c0.256,0,0.504,0.06,0.744,0.18
		c0.288,0.152,0.432,0.34,0.432,0.564v0.024c0,0.088-0.064,0.208-0.192,0.36c-0.136,0.144-0.204,0.28-0.204,0.408
		c0,0.2-0.002,0.39-0.006,0.57c-0.004,0.18-0.006,0.354-0.006,0.522c0,0.6,0.012,1.128,0.036,1.584
		c0.056,0.048,0.116,0.11,0.18,0.186c0.064,0.076,0.122,0.154,0.174,0.234c0.052,0.08,0.096,0.162,0.132,0.246
		c0.036,0.084,0.054,0.154,0.054,0.21c0,0.112-0.062,0.198-0.186,0.258s-0.242,0.118-0.354,0.174
		c-0.008,0.112-0.014,0.236-0.018,0.372c-0.004,0.136-0.006,0.284-0.006,0.444c0,0.232,0.004,0.492,0.012,0.78
		c0.008,0.288,0.02,0.6,0.036,0.936c0,0.04,0.008,0.086,0.024,0.138c0.016,0.052,0.034,0.108,0.054,0.168
		c0.02,0.06,0.038,0.116,0.054,0.168c0.016,0.052,0.024,0.094,0.024,0.126c0,0.152-0.128,0.276-0.384,0.372
		c-0.048,0.024-0.112,0.036-0.192,0.036c-0.232,0-0.492-0.068-0.78-0.204c-0.32-0.16-0.48-0.344-0.48-0.552
		c0-0.088,0.036-0.21,0.108-0.366c0.072-0.156,0.14-0.31,0.204-0.462v-1.896l-1.488,0.312c0,0.184,0,0.402,0,0.654
		c0,0.252,0.004,0.542,0.012,0.87c0.008,0.328,0.012,0.574,0.012,0.738s0,0.25,0,0.258c0,0.08,0.024,0.216,0.072,0.408
		c0.048,0.184,0.072,0.316,0.072,0.396c0,0.152-0.048,0.272-0.144,0.36c-0.096,0.088-0.232,0.132-0.408,0.132
		c-0.176,0-0.356-0.046-0.54-0.138c-0.184-0.092-0.308-0.194-0.372-0.306C-335.409-83.944-335.436-84.012-335.436-84.068z"/>
	<path d="M-326.917-84.212c-0.056,0.088-0.256,0.196-0.6,0.324c-0.352,0.128-0.668,0.192-0.948,0.192h-0.108
		c-0.544,0-0.976-0.316-1.296-0.948c-0.288-0.552-0.432-1.228-0.432-2.028c0-0.888,0.16-1.652,0.48-2.292
		c0.36-0.728,0.844-1.132,1.452-1.212c0.064-0.008,0.122-0.014,0.174-0.018c0.052-0.004,0.106-0.006,0.162-0.006
		c0.88,0,1.364,0.54,1.452,1.62c0,0.016,0.002,0.036,0.006,0.06c0.004,0.024,0.006,0.048,0.006,0.072
		c0,0.224-0.052,0.46-0.156,0.708s-0.252,0.504-0.444,0.768c-0.48,0.648-1.084,1.096-1.812,1.344
		c0.088,0.312,0.152,0.504,0.192,0.576c0.088,0.184,0.228,0.276,0.42,0.276c0.16,0,0.34-0.068,0.54-0.204
		c0.168-0.12,0.276-0.224,0.324-0.312c0.024-0.008,0.056-0.088,0.096-0.24c0.04-0.168,0.116-0.28,0.228-0.336
		c0.048-0.024,0.1-0.036,0.156-0.036c0.168,0,0.336,0.088,0.504,0.264c0.144,0.16,0.216,0.308,0.216,0.444
		c0,0.016-0.002,0.03-0.006,0.042c-0.004,0.012-0.006,0.026-0.006,0.042C-326.381-84.824-326.581-84.524-326.917-84.212z
		 M-328.765-88.364c-0.208,0.464-0.312,0.932-0.312,1.404c0,0.041,0,0.083,0,0.126c0,0.044,0.004,0.086,0.012,0.126
		c0.344-0.112,0.664-0.368,0.96-0.768s0.444-0.764,0.444-1.092c0-0.28-0.132-0.42-0.396-0.42
		C-328.353-88.988-328.589-88.78-328.765-88.364z"/>
	<path d="M-321.961-83.948c-0.216-0.12-0.352-0.244-0.408-0.372c-0.016-0.056-0.038-0.154-0.066-0.294
		c-0.028-0.14-0.062-0.33-0.102-0.57c-0.168,0.4-0.488,0.784-0.96,1.152c-0.512,0.368-0.996,0.552-1.452,0.552
		c-0.648,0-1.08-0.384-1.296-1.152c-0.064-0.216-0.096-0.42-0.096-0.612c0-0.512,0.232-0.976,0.696-1.392
		c0.16-0.136,0.36-0.274,0.6-0.414c0.24-0.14,0.532-0.286,0.876-0.438c0.368-0.168,0.662-0.306,0.882-0.414
		c0.22-0.108,0.366-0.19,0.438-0.246c0.032-0.104,0.048-0.224,0.048-0.36c0-0.224-0.068-0.356-0.204-0.396
		c-0.12-0.048-0.248-0.072-0.384-0.072c-0.168,0-0.354,0.044-0.558,0.132s-0.434,0.212-0.69,0.372
		c-0.04,0.024-0.09,0.066-0.15,0.126s-0.134,0.142-0.222,0.246c-0.144,0.16-0.28,0.24-0.408,0.24h-0.06
		c-0.184,0-0.344-0.074-0.48-0.222c-0.136-0.148-0.204-0.318-0.204-0.51c0-0.128,0.028-0.236,0.084-0.324
		c0.144-0.232,0.52-0.476,1.128-0.732c0.752-0.304,1.516-0.456,2.292-0.456c0.504,0,0.844,0.236,1.02,0.708
		c0.064,0.16,0.118,0.386,0.162,0.678s0.078,0.658,0.102,1.098c0.04,0.528,0.078,0.982,0.114,1.362s0.078,0.694,0.126,0.942
		c0.008,0.08,0.072,0.2,0.192,0.36c0.112,0.152,0.168,0.284,0.168,0.396c0,0.032-0.008,0.08-0.024,0.144
		c-0.08,0.376-0.32,0.564-0.72,0.564C-321.669-83.852-321.817-83.884-321.961-83.948z M-324.313-86.204
		c-0.08,0.064-0.156,0.13-0.228,0.198c-0.072,0.068-0.144,0.134-0.216,0.198c-0.184,0.152-0.276,0.32-0.276,0.504
		c0,0.136,0.04,0.256,0.12,0.36c0.08,0.104,0.188,0.156,0.324,0.156c0.312,0,0.648-0.208,1.008-0.624
		c0.408-0.48,0.696-1.052,0.864-1.716c-0.056,0.024-0.124,0.056-0.204,0.096c-0.072,0.04-0.16,0.086-0.264,0.138
		c-0.104,0.052-0.224,0.11-0.36,0.174c-0.16,0.088-0.302,0.174-0.426,0.258S-324.209-86.292-324.313-86.204z"/>
	<path d="M-317.581-90.8c0-0.064-0.01-0.132-0.03-0.204c-0.02-0.072-0.058-0.156-0.114-0.252c-0.096-0.192-0.144-0.332-0.144-0.42
		c0-0.064,0.02-0.136,0.06-0.216c0.152-0.336,0.456-0.504,0.912-0.504c0.36,0,0.588,0.132,0.684,0.396
		c0.024,0.096,0.036,0.18,0.036,0.252c0,0.088-0.024,0.2-0.072,0.336c-0.048,0.136-0.072,0.252-0.072,0.348v6.288
		c0,0.088,0.03,0.188,0.09,0.3c0.06,0.112,0.09,0.204,0.09,0.276c0,0.064-0.016,0.124-0.048,0.18c-0.08,0.2-0.352,0.3-0.816,0.3
		c-0.28,0-0.472-0.056-0.576-0.168c-0.032-0.064-0.048-0.116-0.048-0.156c0-0.056,0.018-0.138,0.054-0.246
		c0.036-0.108,0.058-0.194,0.066-0.258c-0.336,0.48-0.732,0.72-1.188,0.72c-0.624,0-1.072-0.344-1.344-1.032
		c-0.208-0.552-0.312-1.24-0.312-2.064c0-0.8,0.164-1.512,0.492-2.136c0.36-0.696,0.812-1.044,1.356-1.044
		c0.304,0,0.612,0.24,0.924,0.72V-90.8z M-318.373-88.844c-0.176,0-0.312,0.224-0.408,0.672c-0.04,0.184-0.07,0.38-0.09,0.588
		c-0.02,0.208-0.03,0.428-0.03,0.66c0,0.04-0.002,0.092-0.006,0.156s-0.006,0.144-0.006,0.24v0.408c0,0.832,0.18,1.248,0.54,1.248
		c0.168,0,0.324-0.24,0.468-0.72c0.128-0.432,0.192-0.876,0.192-1.332c0-0.176-0.017-0.362-0.048-0.558
		c-0.032-0.196-0.084-0.41-0.156-0.642C-318.077-88.604-318.229-88.844-318.373-88.844z"/>
</g>
<g>
	<path style="fill:#FFFFFF;" d="M28.68,77.467c-0.341,1.429-1.275,2.55-2.807,3.368c-1.528,0.814-3.181,1.221-4.95,1.221
		c-3.335,0-5.61-1.495-6.836-4.489c-0.137-0.407-0.274-1.292-0.411-2.654c-0.137-1.358-0.203-3.231-0.203-5.615v-3.264
		c0-1.429,0-3.094,0-5s0.033-4.049,0.104-6.429c0.066-3.812,0.1-6.906,0.1-9.29c0-2.38,0-4.045,0-5
		c-0.203,0.066-0.457,0.237-0.764,0.511c-0.307,0.27-0.664,0.544-1.071,0.814c-0.407,0.274-0.835,0.511-1.275,0.714
		c-0.444,0.208-0.905,0.307-1.379,0.307c-0.544,0-1.429-0.17-2.654-0.511C2.18,40.59,0,39.057,0,37.558
		c0-0.407,0.104-0.814,0.307-1.225c0.341-0.951,1.159-1.528,2.45-1.732c0.88-0.137,1.595-0.257,2.143-0.357
		c0.544-0.104,0.918-0.187,1.121-0.257c0.748-0.341,1.769-0.831,3.061-1.478c1.292-0.648,2.895-1.516,4.801-2.604V21.74
		c0-0.61-0.174-1.429-0.511-2.45c-0.345-1.022-0.511-1.802-0.511-2.346s0.166-1.088,0.511-1.632c1.495-2.45,3.671-3.675,6.528-3.675
		c3.335,0,5.581,1.225,6.74,3.675c0.54,1.088,0.814,1.906,0.814,2.45c0,0.407-0.12,0.797-0.357,1.171
		c-0.237,0.374-0.494,0.768-0.764,1.175c-0.274,0.407-0.527,0.801-0.768,1.171c-0.237,0.378-0.357,0.735-0.357,1.076v4.693
		c0.544-0.27,1.109-0.627,1.686-1.071c0.577-0.44,1.242-0.934,1.989-1.478c0.951-0.885,1.873-1.329,2.757-1.329
		c0.27,0,0.61,0.071,1.017,0.203c3.949,1.022,5.922,3.405,5.922,7.147c0,1.154-0.357,2.259-1.071,3.314
		c-0.714,1.059-1.653,1.582-2.807,1.582c-0.274,0-0.61-0.066-1.022-0.203c-0.407-0.137-0.835-0.27-1.275-0.407
		c-0.444-0.137-0.885-0.274-1.325-0.411c-0.444-0.133-0.801-0.203-1.071-0.203c-0.478,0-0.922,0.104-1.329,0.307l-3.472,1.836
		v32.047c0,1.225,0.615,2.757,1.84,4.593c1.154,1.703,1.736,3.027,1.736,3.983C28.783,77.226,28.746,77.396,28.68,77.467z"/>
	<path style="fill:#FFFFFF;" d="M65.42,36.948c-1.092,0-2.861,1.769-5.307,5.307c-2.587,3.879-4.763,8.302-6.532,13.268
		c-1.84,5.033-2.757,9.56-2.757,13.571c0,0.274,0.017,0.548,0.054,0.818c0.033,0.274,0.05,0.544,0.05,0.818
		c-0.203,0.407-0.307,0.781-0.307,1.121c0,0.544,0.257,1.346,0.764,2.396c0.511,1.059,0.768,1.89,0.768,2.504
		c0,0.61-0.203,1.221-0.615,1.836c-1.769,2.38-3.468,3.571-5.104,3.571c-1.769,0-3.468-1.362-5.1-4.082
		c-0.955-1.699-1.429-11.055-1.429-28.065c0-3.198,0.05-8.318,0.15-15.361c0.104-7.043,0.22-16.175,0.357-27.405
		c0-0.341-0.033-0.901-0.1-1.682c-0.071-0.781-0.104-1.412-0.104-1.89c0.066-0.544,0.274-1.088,0.615-1.632
		C41.433,0.681,42.895,0,45.212,0c1.836,0,3.638,0.548,5.407,1.636c1.429,0.951,2.143,1.973,2.143,3.061
		c0,0.274-0.033,0.511-0.1,0.714c-0.071,0.341-0.378,0.764-0.922,1.275c-0.544,0.511-0.814,1.038-0.814,1.582V38.48
		c1.769-4.016,3.962-7.147,6.582-9.39c2.62-2.247,5.698-3.368,9.236-3.368h0.407c3.609,0,6.466,2.791,8.576,8.368
		c2.039,5.444,3.061,12.076,3.061,19.9c0,2.994-0.154,5.851-0.461,8.571c-0.303,2.724-0.797,5.274-1.478,7.658
		c0.203,0.748,0.341,1.375,0.407,1.885c0.071,0.511,0.104,0.868,0.104,1.071c0,1.362-0.748,2.45-2.247,3.268
		c-1.495,0.814-3.127,1.225-4.896,1.225c-2.724,0-4.46-0.988-5.208-2.961c-0.341-0.885-0.511-1.566-0.511-2.043
		c0-0.814,0.374-1.699,1.125-2.654c0.748-0.951,1.121-1.836,1.121-2.65c0.748-3.405,1.121-8.098,1.121-14.086
		c0-10.544-0.748-15.988-2.243-16.329H65.42z"/>
	<path style="fill:#FFFFFF;" d="M111.753,75.831c-0.478,0.752-2.18,1.669-5.104,2.757c-2.994,1.088-5.681,1.632-8.061,1.632h-0.922
		c-4.626,0-8.302-2.687-11.022-8.061c-2.45-4.697-3.671-10.444-3.671-17.251c0-7.55,1.358-14.049,4.082-19.493
		c3.061-6.188,7.176-9.626,12.346-10.307c0.544-0.066,1.038-0.116,1.483-0.154c0.44-0.033,0.901-0.05,1.375-0.05
		c7.488,0,11.603,4.593,12.351,13.779c0,0.137,0.017,0.303,0.05,0.511c0.033,0.203,0.054,0.407,0.054,0.61
		c0,1.906-0.444,3.912-1.329,6.022s-2.143,4.286-3.775,6.532c-4.082,5.511-9.219,9.323-15.411,11.429
		c0.748,2.654,1.292,4.29,1.632,4.9c0.748,1.566,1.939,2.346,3.571,2.346c1.362,0,2.89-0.577,4.593-1.736
		c1.429-1.017,2.346-1.902,2.757-2.654c0.203-0.066,0.473-0.748,0.814-2.039c0.341-1.429,0.988-2.38,1.939-2.857
		c0.411-0.203,0.851-0.307,1.329-0.307c1.429,0,2.857,0.752,4.286,2.247c1.225,1.362,1.836,2.62,1.836,3.775
		c0,0.137-0.017,0.257-0.05,0.357c-0.033,0.104-0.05,0.22-0.05,0.357C116.309,70.627,114.61,73.177,111.753,75.831z M96.034,40.519
		c-1.769,3.945-2.654,7.928-2.654,11.939c0,0.345,0,0.702,0,1.071c0,0.378,0.033,0.735,0.104,1.076
		c2.924-0.955,5.648-3.131,8.164-6.532c2.517-3.401,3.775-6.499,3.775-9.29c0-2.38-1.121-3.571-3.368-3.571
		C99.539,35.212,97.529,36.981,96.034,40.519z"/>
</g>
<g>
	<path style="fill:#FFFFFF;" d="M21.273,174.631c-2.043,0-4.12-0.988-6.225-2.961c-1.906-1.836-2.857-3.742-2.857-5.714
		c0-0.818,0.27-1.665,0.814-2.55c-0.814-21.092-1.225-36.948-1.225-47.562c0-1.495,0-2.857,0-4.082c0-1.225,0.033-2.346,0.104-3.368
		c-1.296-2.11-1.939-3.708-1.939-4.797c0-1.495,0.851-2.791,2.55-3.879c1.495-1.088,3.065-1.632,4.697-1.632
		c1.358,0,2.583,0.444,3.675,1.325c8.231-3.198,13.675-4.797,16.329-4.797c1.429,0,2.82,0.341,4.182,1.022
		c2.043,1.022,4.016,2.791,5.922,5.307c1.088,1.429,1.939,2.857,2.55,4.286c0.615,1.429,0.918,2.857,0.918,4.286v1.022
		c0,2.18-0.374,5.021-1.121,8.522c-0.752,3.505-1.802,7.674-3.164,12.504c-1.703,5.714-3.468,10.955-5.307,15.718
		c-1.836,4.763-3.846,9.149-6.022,13.165C30.185,169.901,25.559,174.631,21.273,174.631z M24.13,112.376
		c-0.407,4.693-0.615,9.863-0.615,15.511c0,4.153,0.104,8.302,0.307,12.45c0.203,4.153,0.478,8.405,0.818,12.758
		c1.632-4.082,3.231-8.214,4.797-12.4c1.566-4.182,3.027-8.522,4.39-13.011c1.561-4.83,2.703-8.846,3.418-12.043
		s1.071-5.577,1.071-7.143c0-0.955-0.104-1.532-0.307-1.736c-0.681-0.748-1.495-1.121-2.45-1.121
		C33.657,105.64,29.844,107.882,24.13,112.376z"/>
	<path style="fill:#FFFFFF;" d="M66.892,172.384c-1.499,0.951-3.198,1.429-5.104,1.429c-2.313,0-3.978-0.814-5-2.45
		c-1.362-1.973-2.043-7.924-2.043-17.857c0-1.159,0-2.67,0-4.543c0-1.869,0.033-4.066,0.104-6.582
		c0.066-2.587,0.116-4.78,0.154-6.582c0.033-1.802,0.05-3.285,0.05-4.439c0-0.955-0.087-2.126-0.253-3.522
		c-0.174-1.395-0.257-2.4-0.257-3.011c0-2.11,0.748-3.879,2.247-5.307c0.61-0.681,1.769-1.022,3.468-1.022
		c1.703,0,3.385,0.274,5.054,0.818c1.665,0.544,2.737,1.154,3.214,1.836c0.473,0.818,0.714,1.499,0.714,2.043
		c0,0.885-0.511,2.28-1.532,4.182c-0.885,1.703-1.325,3.202-1.325,4.493v27.658c0,1.292,0.341,3.061,1.022,5.307
		c0.336,1.154,0.594,2.126,0.764,2.907c0.17,0.785,0.253,1.379,0.253,1.786C68.42,170.752,67.913,171.703,66.892,172.384z
		 M54.645,110.436c0-0.411,0.187-0.988,0.561-1.736s0.561-1.395,0.561-1.939c0-0.137,0.017-0.307,0.05-0.511
		c0.033-0.203,0.054-0.473,0.054-0.818c0-0.336-0.021-0.694-0.054-1.071c-0.033-0.374-0.05-0.831-0.05-1.375v-0.615
		c0-1.292,0.341-2.176,1.022-2.654c1.088-0.748,2.857-1.121,5.307-1.121c2.787,0,4.759,0.577,5.918,1.736
		c0.203,0.203,0.307,0.507,0.307,0.918c0,0.544-0.203,1.528-0.615,2.957c-0.203,0.818-0.374,1.516-0.507,2.093
		c-0.137,0.581-0.241,1.038-0.307,1.379v-0.104c0.133,0,0.203,1.395,0.203,4.186c0,1.362-0.407,2.247-1.225,2.654
		c-0.818,0.407-1.802,0.615-2.961,0.615c-1.566,0-3.264-0.374-5.1-1.125C55.7,113.09,54.645,111.931,54.645,110.436z"/>
	<path style="fill:#FFFFFF;" d="M104.143,158.198c0,4.356-1.566,8.098-4.697,11.229c-3.264,3.061-6.973,4.589-11.125,4.589
		c-2.583,0-5.374-1.292-8.368-3.875c-2.176-1.973-4.219-4.493-6.121-7.554c-1.362-2.38-2.043-3.945-2.043-4.697v-0.303
		c0.748-1.566,2.924-2.351,6.532-2.351c1.495,0,2.687,0.241,3.571,0.714c1.566,0.889,2.384,1.906,2.45,3.065
		c0.203,1.429,0.544,2.346,1.022,2.753c1.358,1.977,2.55,2.961,3.571,2.961c0.748,0,1.495-0.544,2.247-1.632
		c0.748-1.088,1.121-2.384,1.121-3.879c0-0.885-0.17-1.836-0.511-2.857c-0.341-0.951-2.039-2.384-5.104-4.286
		c-1.769-1.159-3.314-2.23-4.643-3.218c-1.325-0.984-2.396-1.952-3.214-2.907c-2.654-2.924-3.983-6.429-3.983-10.511
		c0-4.626,1.362-8.709,4.086-12.247c2.787-3.609,6.292-5.411,10.511-5.411c4.423,0,7.791,1.669,10.104,5
		c1.632,2.384,2.45,4.73,2.45,7.043c0,0.203-0.021,0.39-0.054,0.561c-0.033,0.17-0.05,0.357-0.05,0.561
		c0.681,0.818,1.022,2.076,1.022,3.779c0,1.906-0.681,3.505-2.043,4.797c-1.362,1.292-2.791,1.939-4.286,1.939
		c-2.039,0-3.879-1.395-5.511-4.186c-0.478-0.748-0.714-1.769-0.714-3.061c0-0.544,0.05-1.346,0.154-2.4
		c0.1-1.055,0.154-1.786,0.154-2.193c0-1.632-0.581-2.45-1.736-2.45c-1.836,0-2.757,1.802-2.757,5.411
		c0,3.605,1.192,6.495,3.576,8.675c0.473,0.407,1.221,0.934,2.243,1.578c1.022,0.648,2.313,1.379,3.879,2.197
		c2.791,1.495,4.697,2.89,5.714,4.182C103.291,151.462,104.143,154.457,104.143,158.198z"/>
	<path style="fill:#FFFFFF;" d="M136.801,168.506c-0.478,0.752-2.18,1.669-5.104,2.757c-2.994,1.088-5.681,1.632-8.061,1.632h-0.922
		c-4.626,0-8.302-2.687-11.022-8.061c-2.45-4.697-3.671-10.444-3.671-17.251c0-7.55,1.358-14.049,4.082-19.493
		c3.061-6.188,7.176-9.626,12.346-10.307c0.544-0.066,1.038-0.116,1.483-0.154c0.44-0.033,0.901-0.05,1.375-0.05
		c7.488,0,11.603,4.593,12.351,13.779c0,0.137,0.017,0.303,0.05,0.511c0.033,0.203,0.054,0.407,0.054,0.61
		c0,1.906-0.444,3.912-1.329,6.022c-0.885,2.11-2.143,4.286-3.775,6.532c-4.082,5.511-9.219,9.323-15.411,11.429
		c0.748,2.654,1.292,4.29,1.632,4.9c0.748,1.566,1.939,2.346,3.571,2.346c1.362,0,2.89-0.577,4.593-1.736
		c1.429-1.017,2.346-1.902,2.757-2.654c0.203-0.066,0.473-0.748,0.814-2.039c0.341-1.429,0.988-2.38,1.939-2.857
		c0.411-0.203,0.851-0.307,1.329-0.307c1.429,0,2.857,0.752,4.286,2.247c1.225,1.362,1.836,2.62,1.836,3.775
		c0,0.137-0.017,0.257-0.05,0.357c-0.033,0.104-0.05,0.22-0.05,0.357C141.356,163.302,139.658,165.852,136.801,168.506z
		 M121.082,133.194c-1.769,3.945-2.654,7.928-2.654,11.939c0,0.345,0,0.702,0,1.071c0,0.378,0.033,0.735,0.104,1.076
		c2.924-0.955,5.648-3.131,8.164-6.532c2.517-3.401,3.775-6.499,3.775-9.29c0-2.38-1.121-3.571-3.368-3.571
		C124.587,127.887,122.577,129.656,121.082,133.194z"/>
	<path style="fill:#FFFFFF;" d="M154.861,166.263c-1.495,0-3.011-0.411-4.539-1.225c-1.532-0.818-2.637-1.802-3.318-2.961
		c-0.544-0.748-0.968-2.247-1.275-4.489c-0.307-2.247-0.461-5.307-0.461-9.186v-22.147c0-0.27-0.066-0.648-0.203-1.121
		c-0.137-0.478-0.307-0.972-0.511-1.483c-0.203-0.511-0.374-1.001-0.511-1.478s-0.203-0.851-0.203-1.125
		c0-0.54,0.17-1.051,0.511-1.528c0.885-1.292,2.961-1.939,6.225-1.939c4.016,0,6.433,1.022,7.247,3.061
		c0.203,0.407,0.307,0.851,0.307,1.329c0,0.27-0.087,0.627-0.257,1.071c-0.17,0.44-0.374,0.885-0.61,1.325
		c-0.241,0.444-0.444,0.905-0.61,1.379c-0.174,0.478-0.257,0.885-0.257,1.225v10.714c0.951-1.973,2.043-4.199,3.268-6.682
		c1.221-2.483,2.583-5.257,4.082-8.318c0.27-0.615,0.523-1.242,0.764-1.89c0.237-0.644,0.561-1.242,0.968-1.786
		c0.411-0.544,0.955-0.984,1.636-1.329c0.677-0.336,1.595-0.507,2.753-0.507c2.587,0,5.104,0.544,7.554,1.632
		c2.583,1.159,3.879,2.517,3.879,4.082v0.307c0,1.566-0.241,2.737-0.714,3.517c-0.478,0.785-0.714,1.449-0.714,1.993l-0.208,20.307
		c0.544-1.154,1.242-3.061,2.093-5.714c0.851-2.654,1.956-6.088,3.318-10.307c2.043-6.258,3.605-9.83,4.693-10.718
		c1.362-0.951,3.405-1.429,6.125-1.429c5.104,0,7.687,1.429,7.758,4.29c-0.071,1.973-0.104,4.199-0.104,6.682
		c0,2.488,0,5.357,0,8.625c0,3.198,0.017,6.703,0.054,10.511c0.033,3.812,0.05,7.961,0.05,12.454c0,0.61,0.644,1.462,1.939,2.55
		c1.225,1.022,1.836,2.039,1.836,3.061c0,0.478-0.1,1.055-0.307,1.736c-0.951,2.313-2.824,3.472-5.61,3.472
		c-3.609,0-6.296-1.262-8.065-3.779c-0.951-1.358-1.429-6.088-1.429-14.186v-4.896c0-1.159,0.017-2.11,0.05-2.861
		c0.037-0.747,0.054-1.358,0.054-1.836c0-4.352-0.203-6.599-0.615-6.736h-0.1c-1.022,0-4.186,8.779-9.493,26.333
		c0,0.066-0.033,0.457-0.1,1.171c-0.071,0.714-0.174,1.823-0.307,3.318c-0.137,1.769-0.752,2.994-1.84,3.675
		c-0.814,0.407-1.732,0.61-2.753,0.61c-1.836,0-3.588-0.594-5.257-1.786c-1.665-1.192-2.737-2.604-3.214-4.236
		c-0.544-2.176-0.818-5.918-0.818-11.225v-2.45c0-4.967,0.037-8.638,0.104-11.022c0.066-2.38,0.104-3.505,0.104-3.368
		c-0.137-2.517-0.345-3.846-0.615-3.983c-0.681,1.159-1.325,2.317-1.939,3.472c-0.61,1.159-1.192,2.28-1.736,3.368
		c-1.292,2.654-2.297,5.071-3.011,7.247c-0.714,2.176-1.208,4.149-1.478,5.918c-0.137,0.548-0.203,1.225-0.203,2.043
		c0,0.341,0.017,0.698,0.05,1.071c0.033,0.374,0.054,0.801,0.054,1.275c0.066,0.274,0.1,0.648,0.1,1.121
		c0,1.499-0.39,2.5-1.175,3.011C157.092,166.006,156.087,166.263,154.861,166.263z"/>
	<path style="fill:#FFFFFF;" d="M223.346,124.519c2.72-4.082,5.341-6.121,7.857-6.121c4.556,0,8.434,2.957,11.636,8.879
		c2.787,5.444,4.182,11.499,4.182,18.165c0,7.143-0.918,12.998-2.753,17.554c-2.313,5.855-6.092,8.779-11.329,8.779
		c-3.949,0-7.317-2.043-10.104-6.125c0.066,0.548,0.253,1.275,0.561,2.197c0.307,0.918,0.461,1.615,0.461,2.089
		c0,0.411-0.174,0.851-0.511,1.329c-0.752,0.951-2.384,1.429-4.9,1.429c-3.812,0-6.125-0.851-6.939-2.55
		c-0.203-0.478-0.307-0.988-0.307-1.532c0-0.615,0.237-1.395,0.714-2.346c0.478-0.955,0.714-1.802,0.714-2.554v-53.48
		c0-0.814-0.203-1.798-0.61-2.957c-0.411-1.159-0.615-2.11-0.615-2.857c0-0.681,0.137-1.395,0.411-2.143
		c0.814-2.247,2.753-3.372,5.814-3.372c3.812,0,6.395,1.433,7.757,4.29c0.137,0.341,0.237,0.648,0.307,0.918
		c0.066,0.274,0.1,0.577,0.1,0.918c0,0.752-0.407,1.939-1.221,3.571c-0.818,1.632-1.225,2.928-1.225,3.879V124.519z
		 M234.675,145.441c0-3.879-0.378-7.413-1.125-10.615c-0.814-3.808-1.973-5.714-3.468-5.714c-1.225,0-2.45,2.043-3.675,6.125
		c-0.615,1.973-1.088,3.792-1.429,5.457c-0.341,1.669-0.511,3.252-0.511,4.747c0,3.675,0.577,7.45,1.736,11.329
		c1.225,4.082,2.517,6.125,3.879,6.125c3.127,0,4.693-3.538,4.693-10.615v-3.472c0-0.814-0.017-1.495-0.05-2.039
		C234.687,146.226,234.675,145.781,234.675,145.441z"/>
	<path style="fill:#FFFFFF;" d="M279.887,122.272c4.149,4.219,6.225,11.4,6.225,21.537c0,7.691-1.462,14.356-4.39,20.004
		c-3.198,6.192-7.753,9.286-13.675,9.286c-5.781,0-10.241-2.787-13.368-8.368c-1.362-2.45-2.384-5.204-3.061-8.268
		c-0.681-3.061-1.022-6.495-1.022-10.307c0-6.665,1.055-12.62,3.164-17.861c2.243-5.714,5.1-9.012,8.571-9.896
		c0.951-0.274,1.89-0.478,2.807-0.615c0.918-0.137,1.89-0.203,2.907-0.203C272.673,117.579,276.623,119.145,279.887,122.272z
		 M261.822,144.319c0,2.994,0.066,5.511,0.203,7.55c0.137,2.043,0.307,3.675,0.511,4.9c0.885,4.286,2.72,6.703,5.511,7.247h0.203
		c1.703,0,3.268-2.413,4.697-7.247c0.681-2.45,1.208-4.967,1.582-7.554c0.374-2.583,0.561-5.303,0.561-8.164
		c0-9.115-1.973-13.879-5.918-14.286h-0.307c-1.906,0-3.609,1.939-5.104,5.818C262.47,136.188,261.822,140.1,261.822,144.319z"/>
	<path style="fill:#FFFFFF;" d="M313.056,112.476c0-0.544-0.087-1.121-0.257-1.736c-0.17-0.61-0.494-1.325-0.968-2.143
		c-0.818-1.632-1.225-2.82-1.225-3.571c0-0.544,0.17-1.154,0.511-1.836c1.292-2.857,3.879-4.29,7.758-4.29
		c3.061,0,5,1.125,5.818,3.372c0.203,0.814,0.303,1.528,0.303,2.143c0,0.748-0.203,1.699-0.61,2.857
		c-0.411,1.159-0.615,2.143-0.615,2.957v53.48c0,0.752,0.257,1.599,0.768,2.554c0.511,0.951,0.764,1.732,0.764,2.346
		c0,0.544-0.137,1.055-0.407,1.532c-0.681,1.699-2.994,2.55-6.944,2.55c-2.38,0-4.012-0.478-4.896-1.429
		c-0.274-0.544-0.407-0.984-0.407-1.329c0-0.473,0.15-1.171,0.457-2.089c0.307-0.922,0.494-1.649,0.561-2.197
		c-2.857,4.082-6.225,6.125-10.104,6.125c-5.307,0-9.115-2.924-11.429-8.779c-1.769-4.693-2.654-10.544-2.654-17.554
		c0-6.802,1.391-12.857,4.182-18.165c3.065-5.922,6.906-8.879,11.532-8.879c2.587,0,5.208,2.039,7.861,6.121V112.476z
		 M306.32,129.112c-1.499,0-2.654,1.906-3.472,5.714c-0.341,1.566-0.594,3.235-0.764,5c-0.17,1.773-0.257,3.642-0.257,5.615
		c0,0.341-0.017,0.785-0.05,1.329c-0.033,0.544-0.05,1.225-0.05,2.039v3.472c0,7.076,1.532,10.615,4.593,10.615
		c1.429,0,2.753-2.043,3.978-6.125c1.088-3.675,1.636-7.45,1.636-11.329c0-1.495-0.141-3.077-0.411-4.747
		c-0.27-1.665-0.714-3.484-1.325-5.457C308.836,131.155,307.545,129.112,306.32,129.112z"/>
	<path style="fill:#FFFFFF;" d="M343.467,172.384c-1.499,0.951-3.198,1.429-5.104,1.429c-2.313,0-3.978-0.814-5-2.45
		c-1.362-1.973-2.043-7.924-2.043-17.857c0-1.159,0-2.67,0-4.543c0-1.869,0.033-4.066,0.104-6.582
		c0.066-2.587,0.116-4.78,0.154-6.582c0.033-1.802,0.05-3.285,0.05-4.439c0-0.955-0.087-2.126-0.253-3.522
		c-0.174-1.395-0.257-2.4-0.257-3.011c0-2.11,0.747-3.879,2.247-5.307c0.61-0.681,1.769-1.022,3.468-1.022
		c1.703,0,3.385,0.274,5.054,0.818c1.665,0.544,2.737,1.154,3.214,1.836c0.473,0.818,0.714,1.499,0.714,2.043
		c0,0.885-0.511,2.28-1.532,4.182c-0.885,1.703-1.325,3.202-1.325,4.493v27.658c0,1.292,0.341,3.061,1.022,5.307
		c0.336,1.154,0.594,2.126,0.764,2.907c0.17,0.785,0.253,1.379,0.253,1.786C344.995,170.752,344.488,171.703,343.467,172.384z
		 M331.22,110.436c0-0.411,0.187-0.988,0.561-1.736c0.374-0.748,0.561-1.395,0.561-1.939c0-0.137,0.017-0.307,0.05-0.511
		c0.033-0.203,0.054-0.473,0.054-0.818c0-0.336-0.021-0.694-0.054-1.071c-0.033-0.374-0.05-0.831-0.05-1.375v-0.615
		c0-1.292,0.341-2.176,1.022-2.654c1.088-0.748,2.857-1.121,5.307-1.121c2.787,0,4.759,0.577,5.918,1.736
		c0.203,0.203,0.307,0.507,0.307,0.918c0,0.544-0.203,1.528-0.615,2.957c-0.203,0.818-0.374,1.516-0.507,2.093
		c-0.137,0.581-0.241,1.038-0.307,1.379v-0.104c0.133,0,0.203,1.395,0.203,4.186c0,1.362-0.407,2.247-1.225,2.654
		c-0.818,0.407-1.802,0.615-2.961,0.615c-1.566,0-3.264-0.374-5.1-1.125C332.275,113.09,331.22,111.931,331.22,110.436z"/>
	<path style="fill:#FFFFFF;" d="M378.982,168.506c-0.478,0.752-2.18,1.669-5.104,2.757c-2.994,1.088-5.681,1.632-8.061,1.632h-0.922
		c-4.626,0-8.302-2.687-11.022-8.061c-2.45-4.697-3.671-10.444-3.671-17.251c0-7.55,1.358-14.049,4.082-19.493
		c3.061-6.188,7.176-9.626,12.346-10.307c0.544-0.066,1.038-0.116,1.483-0.154c0.44-0.033,0.901-0.05,1.375-0.05
		c7.488,0,11.603,4.593,12.351,13.779c0,0.137,0.017,0.303,0.05,0.511c0.033,0.203,0.054,0.407,0.054,0.61
		c0,1.906-0.444,3.912-1.329,6.022c-0.885,2.11-2.143,4.286-3.775,6.532c-4.082,5.511-9.219,9.323-15.411,11.429
		c0.748,2.654,1.292,4.29,1.632,4.9c0.747,1.566,1.939,2.346,3.571,2.346c1.362,0,2.89-0.577,4.593-1.736
		c1.429-1.017,2.346-1.902,2.757-2.654c0.203-0.066,0.473-0.748,0.814-2.039c0.341-1.429,0.988-2.38,1.939-2.857
		c0.411-0.203,0.851-0.307,1.329-0.307c1.429,0,2.857,0.752,4.286,2.247c1.225,1.362,1.836,2.62,1.836,3.775
		c0,0.137-0.017,0.257-0.05,0.357c-0.033,0.104-0.05,0.22-0.05,0.357C383.538,163.302,381.839,165.852,378.982,168.506z
		 M363.263,133.194c-1.769,3.945-2.654,7.928-2.654,11.939c0,0.345,0,0.702,0,1.071c0,0.378,0.033,0.735,0.104,1.076
		c2.924-0.955,5.648-3.131,8.164-6.532c2.517-3.401,3.775-6.499,3.775-9.29c0-2.38-1.121-3.571-3.368-3.571
		C366.768,127.887,364.758,129.656,363.263,133.194z"/>
	<path style="fill:#FFFFFF;" d="M408.276,112.476c0-0.544-0.087-1.121-0.257-1.736c-0.17-0.61-0.494-1.325-0.968-2.143
		c-0.818-1.632-1.225-2.82-1.225-3.571c0-0.544,0.17-1.154,0.511-1.836c1.292-2.857,3.879-4.29,7.758-4.29
		c3.061,0,5,1.125,5.818,3.372c0.203,0.814,0.303,1.528,0.303,2.143c0,0.748-0.203,1.699-0.61,2.857
		c-0.411,1.159-0.615,2.143-0.615,2.957v53.48c0,0.752,0.257,1.599,0.768,2.554c0.511,0.951,0.764,1.732,0.764,2.346
		c0,0.544-0.137,1.055-0.407,1.532c-0.681,1.699-2.994,2.55-6.944,2.55c-2.38,0-4.012-0.478-4.896-1.429
		c-0.274-0.544-0.407-0.984-0.407-1.329c0-0.473,0.149-1.171,0.457-2.089c0.307-0.922,0.494-1.649,0.561-2.197
		c-2.857,4.082-6.225,6.125-10.104,6.125c-5.307,0-9.115-2.924-11.429-8.779c-1.769-4.693-2.654-10.544-2.654-17.554
		c0-6.802,1.391-12.857,4.182-18.165c3.065-5.922,6.906-8.879,11.532-8.879c2.587,0,5.208,2.039,7.861,6.121V112.476z
		 M401.54,129.112c-1.499,0-2.654,1.906-3.472,5.714c-0.341,1.566-0.594,3.235-0.764,5c-0.17,1.773-0.257,3.642-0.257,5.615
		c0,0.341-0.017,0.785-0.05,1.329c-0.033,0.544-0.05,1.225-0.05,2.039v3.472c0,7.076,1.532,10.615,4.593,10.615
		c1.429,0,2.753-2.043,3.978-6.125c1.088-3.675,1.636-7.45,1.636-11.329c0-1.495-0.141-3.077-0.411-4.747
		c-0.27-1.665-0.714-3.484-1.325-5.457C404.057,131.155,402.765,129.112,401.54,129.112z"/>
</g>
<g>
	<path style="fill:#FFFFFF;" d="M12.706,258.676c0-0.133,0.237-0.781,0.714-1.939c0-1.358,0-3.127,0-5.307
		c0-2.176-0.033-4.797-0.104-7.857c-0.066-3.061-0.1-5.561-0.1-7.5s0-3.318,0-4.136c-0.071-0.133-0.274-0.523-0.615-1.171
		c-0.341-0.648-0.885-1.615-1.632-2.911c-0.681-1.225-1.022-2.276-1.022-3.164c0-0.407,0.033-0.677,0.104-0.814
		c0.137-0.748,0.511-1.346,1.121-1.786c0.615-0.444,1.225-0.868,1.84-1.275c-0.071-2.587-0.104-5.054-0.104-7.4s0-4.543,0-6.582
		c0-7.417,0.104-12.824,0.307-16.229c-0.544-1.225-0.818-2.143-0.818-2.757c0-1.429,0.951-2.583,2.857-3.468
		c0.411-0.203,0.901-0.341,1.483-0.407c0.577-0.071,1.238-0.104,1.989-0.104c4.967,0,7.961,1.292,8.983,3.879
		c0.133,0.341,0.203,0.818,0.203,1.429c0,0.885-0.548,2.213-1.632,3.978c-0.955,1.57-1.499,2.961-1.636,4.186
		c-0.066,3.061-0.137,5.885-0.203,8.472c-0.066,2.587-0.1,4.9-0.1,6.939c0,1.362,0.012,2.62,0.05,3.775
		c0.033,1.159,0.05,2.213,0.05,3.164c3.061-0.544,5.631-1.001,7.708-1.379c2.072-0.37,3.588-0.727,4.539-1.071
		c-0.137-1.699-0.237-3.451-0.303-5.253c-0.071-1.802-0.104-3.692-0.104-5.664c0-4.9,0.203-10.208,0.61-15.922
		c-0.341-0.818-0.561-1.532-0.66-2.143c-0.104-0.615-0.154-1.192-0.154-1.736c0-1.836,1.154-3.368,3.468-4.593
		c0.411-0.203,1.125-0.307,2.147-0.307c2.176,0,4.286,0.511,6.325,1.532c2.45,1.292,3.675,2.895,3.675,4.797v0.203
		c0,0.752-0.544,1.769-1.632,3.065c-1.159,1.221-1.736,2.38-1.736,3.468c0,1.703-0.017,3.318-0.05,4.846
		c-0.037,1.532-0.054,3.011-0.054,4.444c0,5.1,0.104,9.593,0.307,13.472c0.478,0.407,0.984,0.934,1.532,1.578
		c0.544,0.648,1.034,1.312,1.478,1.993c0.44,0.681,0.818,1.375,1.121,2.093c0.307,0.714,0.461,1.308,0.461,1.786
		c0,0.951-0.527,1.682-1.582,2.193c-1.055,0.511-2.06,1.005-3.011,1.478c-0.066,0.955-0.12,2.01-0.154,3.164
		c-0.033,1.159-0.05,2.417-0.05,3.775c0,1.977,0.033,4.186,0.104,6.636c0.066,2.45,0.166,5.104,0.303,7.961
		c0,0.341,0.066,0.731,0.203,1.171c0.137,0.444,0.291,0.922,0.461,1.433c0.17,0.507,0.324,0.984,0.461,1.429
		c0.133,0.44,0.203,0.797,0.203,1.071c0,1.292-1.092,2.346-3.268,3.164c-0.407,0.203-0.951,0.303-1.632,0.303
		c-1.973,0-4.182-0.577-6.632-1.736c-2.724-1.358-4.082-2.924-4.082-4.693c0-0.747,0.303-1.786,0.918-3.115
		c0.61-1.325,1.188-2.633,1.736-3.929v-16.125l-12.658,2.654c0,1.566,0,3.418,0,5.565c0,2.143,0.033,4.61,0.104,7.396
		c0.066,2.791,0.1,4.884,0.1,6.279s0,2.126,0,2.193c0,0.681,0.203,1.84,0.615,3.472c0.407,1.566,0.61,2.687,0.61,3.368
		c0,1.292-0.407,2.313-1.225,3.061c-0.814,0.747-1.973,1.121-3.468,1.121c-1.499,0-3.027-0.39-4.593-1.171
		c-1.566-0.785-2.62-1.653-3.164-2.604C12.942,259.731,12.706,259.154,12.706,258.676z"/>
	<path style="fill:#FFFFFF;" d="M85.164,257.451c-0.478,0.752-2.18,1.669-5.104,2.758c-2.994,1.088-5.681,1.632-8.061,1.632h-0.922
		c-4.626,0-8.302-2.687-11.022-8.061c-2.45-4.697-3.671-10.444-3.671-17.251c0-7.55,1.358-14.049,4.082-19.493
		c3.061-6.188,7.176-9.626,12.346-10.307c0.544-0.066,1.038-0.116,1.483-0.154c0.44-0.033,0.901-0.05,1.375-0.05
		c7.488,0,11.603,4.593,12.351,13.779c0,0.137,0.017,0.303,0.05,0.511c0.033,0.203,0.054,0.407,0.054,0.61
		c0,1.906-0.444,3.912-1.329,6.022c-0.885,2.11-2.143,4.286-3.775,6.532c-4.082,5.511-9.219,9.323-15.411,11.429
		c0.748,2.654,1.292,4.29,1.632,4.9c0.748,1.566,1.939,2.346,3.571,2.346c1.362,0,2.89-0.577,4.593-1.736
		c1.429-1.017,2.346-1.902,2.757-2.654c0.203-0.066,0.473-0.748,0.814-2.039c0.341-1.429,0.988-2.38,1.939-2.857
		c0.411-0.203,0.851-0.307,1.329-0.307c1.429,0,2.857,0.752,4.286,2.247c1.225,1.362,1.836,2.62,1.836,3.775
		c0,0.137-0.017,0.257-0.05,0.357c-0.033,0.104-0.05,0.22-0.05,0.357C89.72,252.248,88.022,254.797,85.164,257.451z M69.446,222.14
		c-1.769,3.945-2.654,7.928-2.654,11.939c0,0.345,0,0.702,0,1.071c0,0.378,0.033,0.735,0.104,1.076
		c2.924-0.955,5.648-3.131,8.164-6.532c2.517-3.401,3.775-6.499,3.775-9.29c0-2.38-1.121-3.571-3.368-3.571
		C72.951,216.832,70.941,218.601,69.446,222.14z"/>
	<path style="fill:#FFFFFF;" d="M127.312,259.698c-1.836-1.022-2.994-2.076-3.468-3.164c-0.137-0.473-0.324-1.308-0.561-2.5
		c-0.241-1.188-0.527-2.807-0.868-4.846c-1.429,3.401-4.153,6.669-8.164,9.797c-4.356,3.127-8.472,4.693-12.351,4.693
		c-5.511,0-9.186-3.264-11.022-9.797c-0.548-1.836-0.818-3.571-0.818-5.204c0-4.356,1.973-8.302,5.922-11.84
		c1.358-1.154,3.061-2.33,5.1-3.522c2.043-1.188,4.527-2.429,7.45-3.725c3.131-1.429,5.631-2.604,7.504-3.522
		c1.869-0.918,3.11-1.615,3.725-2.093c0.27-0.88,0.407-1.902,0.407-3.061c0-1.902-0.577-3.027-1.736-3.368
		c-1.017-0.407-2.11-0.61-3.264-0.61c-1.429,0-3.011,0.374-4.747,1.121s-3.692,1.802-5.868,3.164
		c-0.341,0.203-0.764,0.561-1.275,1.071c-0.511,0.511-1.142,1.208-1.89,2.093c-1.225,1.362-2.384,2.039-3.468,2.039h-0.511
		c-1.566,0-2.928-0.627-4.082-1.885c-1.159-1.258-1.736-2.708-1.736-4.34c0-1.088,0.237-2.006,0.714-2.753
		c1.225-1.973,4.423-4.049,9.593-6.229c6.395-2.583,12.895-3.875,19.493-3.875c4.286,0,7.176,2.006,8.675,6.017
		c0.544,1.362,1.005,3.285,1.379,5.768c0.374,2.483,0.66,5.598,0.868,9.34c0.336,4.489,0.66,8.351,0.968,11.582
		c0.307,3.231,0.664,5.905,1.071,8.011c0.066,0.681,0.615,1.703,1.632,3.065c0.955,1.292,1.429,2.413,1.429,3.368
		c0,0.27-0.066,0.681-0.203,1.225c-0.681,3.198-2.72,4.797-6.121,4.797C129.795,260.516,128.537,260.242,127.312,259.698z
		 M107.311,240.512c-0.681,0.544-1.329,1.105-1.939,1.682c-0.615,0.581-1.225,1.142-1.84,1.686c-1.566,1.292-2.346,2.72-2.346,4.286
		c0,1.159,0.341,2.176,1.022,3.061c0.677,0.885,1.595,1.329,2.753,1.329c2.654,0,5.511-1.769,8.576-5.307
		c3.468-4.082,5.918-8.949,7.346-14.597c-0.478,0.208-1.055,0.478-1.736,0.818c-0.61,0.341-1.362,0.731-2.243,1.175
		c-0.885,0.44-1.906,0.934-3.065,1.478c-1.362,0.748-2.566,1.478-3.621,2.193C109.164,239.029,108.192,239.764,107.311,240.512z"/>
	<path style="fill:#FFFFFF;" d="M164.567,201.421c0-0.544-0.087-1.121-0.257-1.736c-0.17-0.61-0.494-1.325-0.968-2.143
		c-0.818-1.632-1.225-2.82-1.225-3.571c0-0.544,0.17-1.154,0.511-1.836c1.292-2.857,3.879-4.29,7.758-4.29
		c3.061,0,5,1.125,5.818,3.372c0.203,0.814,0.303,1.528,0.303,2.143c0,0.748-0.203,1.699-0.61,2.857
		c-0.411,1.159-0.615,2.143-0.615,2.957v53.48c0,0.752,0.257,1.599,0.768,2.554c0.511,0.951,0.764,1.732,0.764,2.346
		c0,0.544-0.137,1.055-0.407,1.532c-0.681,1.699-2.994,2.55-6.944,2.55c-2.38,0-4.012-0.478-4.896-1.429
		c-0.274-0.544-0.407-0.984-0.407-1.329c0-0.473,0.149-1.171,0.457-2.089c0.307-0.922,0.494-1.649,0.561-2.197
		c-2.857,4.082-6.225,6.125-10.104,6.125c-5.307,0-9.115-2.924-11.429-8.779c-1.769-4.693-2.654-10.544-2.654-17.554
		c0-6.802,1.391-12.857,4.182-18.165c3.065-5.922,6.906-8.879,11.532-8.879c2.587,0,5.208,2.039,7.861,6.121V201.421z
		 M157.831,218.057c-1.499,0-2.654,1.906-3.472,5.714c-0.341,1.566-0.594,3.235-0.764,5c-0.17,1.773-0.257,3.642-0.257,5.615
		c0,0.341-0.017,0.785-0.05,1.329c-0.033,0.544-0.05,1.225-0.05,2.039v3.472c0,7.076,1.532,10.615,4.593,10.615
		c1.429,0,2.753-2.043,3.978-6.125c1.088-3.675,1.636-7.45,1.636-11.329c0-1.495-0.141-3.077-0.411-4.747
		c-0.27-1.665-0.714-3.484-1.325-5.457C160.347,220.1,159.056,218.057,157.831,218.057z"/>
</g>
<g>
	<path d="M-457.448,77.467c-0.341,1.429-1.275,2.55-2.807,3.368c-1.528,0.814-3.181,1.221-4.95,1.221
		c-3.335,0-5.61-1.495-6.836-4.489c-0.137-0.407-0.274-1.292-0.411-2.654c-0.137-1.358-0.203-3.231-0.203-5.615v-3.264
		c0-1.429,0-3.094,0-5s0.033-4.049,0.104-6.429c0.066-3.812,0.1-6.906,0.1-9.29c0-2.38,0-4.045,0-5
		c-0.203,0.066-0.457,0.237-0.764,0.511c-0.307,0.27-0.664,0.544-1.071,0.814c-0.407,0.274-0.835,0.511-1.275,0.714
		c-0.444,0.208-0.905,0.307-1.379,0.307c-0.544,0-1.429-0.17-2.654-0.511c-4.352-1.561-6.532-3.094-6.532-4.593
		c0-0.407,0.104-0.814,0.307-1.225c0.341-0.951,1.159-1.528,2.45-1.732c0.88-0.137,1.595-0.257,2.143-0.357
		c0.544-0.104,0.918-0.187,1.121-0.257c0.748-0.341,1.769-0.831,3.061-1.478c1.292-0.648,2.895-1.516,4.801-2.604V21.74
		c0-0.61-0.174-1.429-0.511-2.45c-0.345-1.022-0.511-1.802-0.511-2.346s0.166-1.088,0.511-1.632c1.495-2.45,3.671-3.675,6.528-3.675
		c3.335,0,5.581,1.225,6.74,3.675c0.54,1.088,0.814,1.906,0.814,2.45c0,0.407-0.12,0.797-0.357,1.171
		c-0.237,0.374-0.494,0.768-0.764,1.175c-0.274,0.407-0.527,0.801-0.768,1.171c-0.237,0.378-0.357,0.735-0.357,1.076v4.693
		c0.544-0.27,1.109-0.627,1.686-1.071c0.577-0.44,1.242-0.934,1.989-1.478c0.951-0.885,1.873-1.329,2.757-1.329
		c0.27,0,0.61,0.071,1.017,0.203c3.949,1.022,5.922,3.405,5.922,7.147c0,1.154-0.357,2.259-1.071,3.314
		c-0.714,1.059-1.653,1.582-2.807,1.582c-0.274,0-0.61-0.066-1.022-0.203c-0.407-0.137-0.835-0.27-1.275-0.407
		c-0.444-0.137-0.885-0.274-1.325-0.411c-0.444-0.133-0.801-0.203-1.071-0.203c-0.478,0-0.922,0.104-1.329,0.307l-3.472,1.836
		v32.047c0,1.225,0.615,2.757,1.84,4.593c1.155,1.703,1.736,3.027,1.736,3.983C-457.344,77.226-457.382,77.396-457.448,77.467z"/>
	<path d="M-420.708,36.948c-1.092,0-2.861,1.769-5.307,5.307c-2.587,3.879-4.763,8.302-6.532,13.268
		c-1.84,5.033-2.757,9.56-2.757,13.571c0,0.274,0.017,0.548,0.054,0.818c0.033,0.274,0.05,0.544,0.05,0.818
		c-0.203,0.407-0.307,0.781-0.307,1.121c0,0.544,0.257,1.346,0.764,2.396c0.511,1.059,0.768,1.89,0.768,2.504
		c0,0.61-0.203,1.221-0.615,1.836c-1.769,2.38-3.468,3.571-5.104,3.571c-1.769,0-3.468-1.362-5.1-4.082
		c-0.955-1.699-1.429-11.055-1.429-28.065c0-3.198,0.05-8.318,0.15-15.361c0.104-7.043,0.22-16.175,0.357-27.405
		c0-0.341-0.033-0.901-0.1-1.682c-0.071-0.781-0.104-1.412-0.104-1.89c0.066-0.544,0.274-1.088,0.615-1.632
		c0.61-1.362,2.072-2.043,4.39-2.043c1.836,0,3.638,0.548,5.407,1.636c1.429,0.951,2.143,1.973,2.143,3.061
		c0,0.274-0.033,0.511-0.1,0.714c-0.071,0.341-0.378,0.764-0.922,1.275c-0.544,0.511-0.814,1.038-0.814,1.582V38.48
		c1.769-4.016,3.962-7.147,6.582-9.39c2.62-2.247,5.698-3.368,9.236-3.368h0.407c3.609,0,6.466,2.791,8.576,8.368
		c2.039,5.444,3.061,12.076,3.061,19.9c0,2.994-0.154,5.851-0.461,8.571c-0.303,2.724-0.797,5.274-1.478,7.658
		c0.203,0.748,0.341,1.375,0.407,1.885c0.071,0.511,0.104,0.868,0.104,1.071c0,1.362-0.748,2.45-2.247,3.268
		c-1.495,0.814-3.127,1.225-4.896,1.225c-2.724,0-4.46-0.988-5.208-2.961c-0.341-0.885-0.511-1.566-0.511-2.043
		c0-0.814,0.374-1.699,1.125-2.654c0.747-0.951,1.121-1.836,1.121-2.65c0.748-3.405,1.121-8.098,1.121-14.086
		c0-10.544-0.747-15.988-2.243-16.329H-420.708z"/>
	<path d="M-374.375,75.831c-0.478,0.752-2.18,1.669-5.104,2.757c-2.994,1.088-5.681,1.632-8.061,1.632h-0.922
		c-4.626,0-8.302-2.687-11.022-8.061c-2.45-4.697-3.671-10.444-3.671-17.251c0-7.55,1.358-14.049,4.082-19.493
		c3.061-6.188,7.176-9.626,12.346-10.307c0.544-0.066,1.038-0.116,1.483-0.154c0.44-0.033,0.901-0.05,1.375-0.05
		c7.488,0,11.603,4.593,12.351,13.779c0,0.137,0.017,0.303,0.05,0.511c0.033,0.203,0.054,0.407,0.054,0.61
		c0,1.906-0.444,3.912-1.329,6.022c-0.885,2.11-2.143,4.286-3.775,6.532c-4.082,5.511-9.219,9.323-15.411,11.429
		c0.747,2.654,1.292,4.29,1.632,4.9c0.748,1.566,1.939,2.346,3.571,2.346c1.362,0,2.89-0.577,4.593-1.736
		c1.429-1.017,2.346-1.902,2.757-2.654c0.203-0.066,0.473-0.748,0.814-2.039c0.341-1.429,0.988-2.38,1.939-2.857
		c0.411-0.203,0.851-0.307,1.329-0.307c1.429,0,2.857,0.752,4.286,2.247c1.225,1.362,1.836,2.62,1.836,3.775
		c0,0.137-0.017,0.257-0.05,0.357c-0.033,0.104-0.05,0.22-0.05,0.357C-369.819,70.627-371.518,73.177-374.375,75.831z
		 M-390.093,40.519c-1.769,3.945-2.654,7.928-2.654,11.939c0,0.345,0,0.702,0,1.071c0,0.378,0.033,0.735,0.104,1.076
		c2.924-0.955,5.648-3.131,8.164-6.532c2.517-3.401,3.775-6.499,3.775-9.29c0-2.38-1.121-3.571-3.368-3.571
		C-386.588,35.212-388.598,36.981-390.093,40.519z"/>
</g>
<g>
	<path d="M-464.855,174.631c-2.043,0-4.12-0.988-6.225-2.961c-1.906-1.836-2.857-3.742-2.857-5.714c0-0.818,0.27-1.665,0.814-2.55
		c-0.814-21.092-1.225-36.948-1.225-47.562c0-1.495,0-2.857,0-4.082c0-1.225,0.033-2.346,0.104-3.368
		c-1.296-2.11-1.939-3.708-1.939-4.797c0-1.495,0.851-2.791,2.55-3.879c1.495-1.088,3.065-1.632,4.697-1.632
		c1.358,0,2.583,0.444,3.675,1.325c8.231-3.198,13.675-4.797,16.329-4.797c1.429,0,2.82,0.341,4.182,1.022
		c2.043,1.022,4.016,2.791,5.922,5.307c1.088,1.429,1.939,2.857,2.55,4.286c0.615,1.429,0.918,2.857,0.918,4.286v1.022
		c0,2.18-0.374,5.021-1.121,8.522c-0.752,3.505-1.802,7.674-3.164,12.504c-1.703,5.714-3.468,10.955-5.307,15.718
		c-1.836,4.763-3.846,9.149-6.022,13.165C-455.943,169.901-460.569,174.631-464.855,174.631z M-461.998,112.376
		c-0.407,4.693-0.615,9.863-0.615,15.511c0,4.153,0.104,8.302,0.307,12.45c0.203,4.153,0.478,8.405,0.818,12.758
		c1.632-4.082,3.231-8.214,4.797-12.4c1.566-4.182,3.027-8.522,4.39-13.011c1.561-4.83,2.704-8.846,3.418-12.043
		c0.714-3.198,1.071-5.577,1.071-7.143c0-0.955-0.104-1.532-0.307-1.736c-0.681-0.748-1.495-1.121-2.45-1.121
		C-452.471,105.64-456.283,107.882-461.998,112.376z"/>
	<path d="M-419.236,172.384c-1.499,0.951-3.198,1.429-5.104,1.429c-2.313,0-3.978-0.814-5-2.45
		c-1.362-1.973-2.043-7.924-2.043-17.857c0-1.159,0-2.67,0-4.543c0-1.869,0.033-4.066,0.104-6.582
		c0.066-2.587,0.116-4.78,0.154-6.582c0.033-1.802,0.05-3.285,0.05-4.439c0-0.955-0.087-2.126-0.253-3.522
		c-0.174-1.395-0.257-2.4-0.257-3.011c0-2.11,0.747-3.879,2.247-5.307c0.61-0.681,1.769-1.022,3.468-1.022
		c1.703,0,3.385,0.274,5.054,0.818c1.665,0.544,2.737,1.154,3.214,1.836c0.473,0.818,0.714,1.499,0.714,2.043
		c0,0.885-0.511,2.28-1.532,4.182c-0.885,1.703-1.325,3.202-1.325,4.493v27.658c0,1.292,0.341,3.061,1.022,5.307
		c0.336,1.154,0.594,2.126,0.764,2.907c0.17,0.785,0.253,1.379,0.253,1.786C-417.708,170.752-418.214,171.703-419.236,172.384z
		 M-431.483,110.436c0-0.411,0.187-0.988,0.561-1.736c0.374-0.748,0.561-1.395,0.561-1.939c0-0.137,0.017-0.307,0.05-0.511
		c0.033-0.203,0.054-0.473,0.054-0.818c0-0.336-0.021-0.694-0.054-1.071c-0.033-0.374-0.05-0.831-0.05-1.375v-0.615
		c0-1.292,0.341-2.176,1.022-2.654c1.088-0.748,2.857-1.121,5.307-1.121c2.787,0,4.759,0.577,5.918,1.736
		c0.203,0.203,0.307,0.507,0.307,0.918c0,0.544-0.203,1.528-0.615,2.957c-0.203,0.818-0.374,1.516-0.507,2.093
		c-0.137,0.581-0.241,1.038-0.307,1.379v-0.104c0.133,0,0.203,1.395,0.203,4.186c0,1.362-0.407,2.247-1.225,2.654
		c-0.818,0.407-1.802,0.615-2.961,0.615c-1.566,0-3.264-0.374-5.1-1.125C-430.428,113.09-431.483,111.931-431.483,110.436z"/>
	<path d="M-381.985,158.198c0,4.356-1.566,8.098-4.697,11.229c-3.264,3.061-6.973,4.589-11.125,4.589
		c-2.583,0-5.374-1.292-8.368-3.875c-2.176-1.973-4.219-4.493-6.121-7.554c-1.362-2.38-2.043-3.945-2.043-4.697v-0.303
		c0.747-1.566,2.924-2.351,6.532-2.351c1.495,0,2.687,0.241,3.571,0.714c1.566,0.889,2.384,1.906,2.45,3.065
		c0.203,1.429,0.544,2.346,1.022,2.753c1.358,1.977,2.55,2.961,3.571,2.961c0.748,0,1.495-0.544,2.247-1.632
		c0.747-1.088,1.121-2.384,1.121-3.879c0-0.885-0.17-1.836-0.511-2.857c-0.341-0.951-2.039-2.384-5.104-4.286
		c-1.769-1.159-3.314-2.23-4.643-3.218c-1.325-0.984-2.396-1.952-3.214-2.907c-2.654-2.924-3.983-6.429-3.983-10.511
		c0-4.626,1.362-8.709,4.086-12.247c2.787-3.609,6.292-5.411,10.511-5.411c4.423,0,7.791,1.669,10.104,5
		c1.632,2.384,2.45,4.73,2.45,7.043c0,0.203-0.021,0.39-0.054,0.561c-0.033,0.17-0.05,0.357-0.05,0.561
		c0.681,0.818,1.022,2.076,1.022,3.779c0,1.906-0.681,3.505-2.043,4.797c-1.362,1.292-2.791,1.939-4.286,1.939
		c-2.039,0-3.879-1.395-5.511-4.186c-0.478-0.748-0.714-1.769-0.714-3.061c0-0.544,0.05-1.346,0.154-2.4
		c0.1-1.055,0.154-1.786,0.154-2.193c0-1.632-0.581-2.45-1.736-2.45c-1.836,0-2.757,1.802-2.757,5.411
		c0,3.605,1.192,6.495,3.576,8.675c0.473,0.407,1.221,0.934,2.243,1.578c1.022,0.648,2.313,1.379,3.879,2.197
		c2.791,1.495,4.697,2.89,5.714,4.182C-382.836,151.462-381.985,154.457-381.985,158.198z"/>
	<path d="M-349.327,168.506c-0.478,0.752-2.18,1.669-5.104,2.757c-2.994,1.088-5.681,1.632-8.061,1.632h-0.922
		c-4.626,0-8.302-2.687-11.022-8.061c-2.45-4.697-3.671-10.444-3.671-17.251c0-7.55,1.358-14.049,4.082-19.493
		c3.061-6.188,7.176-9.626,12.346-10.307c0.544-0.066,1.038-0.116,1.483-0.154c0.44-0.033,0.901-0.05,1.375-0.05
		c7.488,0,11.603,4.593,12.351,13.779c0,0.137,0.017,0.303,0.05,0.511c0.033,0.203,0.054,0.407,0.054,0.61
		c0,1.906-0.444,3.912-1.329,6.022c-0.885,2.11-2.143,4.286-3.775,6.532c-4.082,5.511-9.219,9.323-15.411,11.429
		c0.747,2.654,1.292,4.29,1.632,4.9c0.748,1.566,1.939,2.346,3.571,2.346c1.362,0,2.89-0.577,4.593-1.736
		c1.429-1.017,2.346-1.902,2.757-2.654c0.203-0.066,0.473-0.748,0.814-2.039c0.341-1.429,0.988-2.38,1.939-2.857
		c0.411-0.203,0.851-0.307,1.329-0.307c1.429,0,2.857,0.752,4.286,2.247c1.225,1.362,1.836,2.62,1.836,3.775
		c0,0.137-0.017,0.257-0.05,0.357c-0.033,0.104-0.05,0.22-0.05,0.357C-344.771,163.302-346.47,165.852-349.327,168.506z
		 M-365.045,133.194c-1.769,3.945-2.654,7.928-2.654,11.939c0,0.345,0,0.702,0,1.071c0,0.378,0.033,0.735,0.104,1.076
		c2.924-0.955,5.648-3.131,8.164-6.532c2.517-3.401,3.775-6.499,3.775-9.29c0-2.38-1.121-3.571-3.368-3.571
		C-361.54,127.887-363.55,129.656-365.045,133.194z"/>
	<path d="M-331.266,166.263c-1.495,0-3.011-0.411-4.539-1.225c-1.532-0.818-2.637-1.802-3.318-2.961
		c-0.544-0.748-0.968-2.247-1.275-4.489c-0.307-2.247-0.461-5.307-0.461-9.186v-22.147c0-0.27-0.066-0.648-0.203-1.121
		c-0.137-0.478-0.307-0.972-0.511-1.483c-0.203-0.511-0.374-1.001-0.511-1.478s-0.203-0.851-0.203-1.125
		c0-0.54,0.17-1.051,0.511-1.528c0.885-1.292,2.961-1.939,6.225-1.939c4.016,0,6.433,1.022,7.247,3.061
		c0.203,0.407,0.307,0.851,0.307,1.329c0,0.27-0.087,0.627-0.257,1.071c-0.17,0.44-0.374,0.885-0.61,1.325
		c-0.241,0.444-0.444,0.905-0.61,1.379c-0.174,0.478-0.257,0.885-0.257,1.225v10.714c0.951-1.973,2.043-4.199,3.268-6.682
		c1.221-2.483,2.583-5.257,4.082-8.318c0.27-0.615,0.523-1.242,0.764-1.89c0.237-0.644,0.561-1.242,0.968-1.786
		c0.411-0.544,0.955-0.984,1.636-1.329c0.677-0.336,1.595-0.507,2.753-0.507c2.587,0,5.104,0.544,7.554,1.632
		c2.583,1.159,3.879,2.517,3.879,4.082v0.307c0,1.566-0.241,2.737-0.714,3.517c-0.478,0.785-0.714,1.449-0.714,1.993l-0.208,20.307
		c0.544-1.154,1.242-3.061,2.093-5.714c0.851-2.654,1.956-6.088,3.318-10.307c2.043-6.258,3.605-9.83,4.693-10.718
		c1.362-0.951,3.405-1.429,6.125-1.429c5.104,0,7.687,1.429,7.758,4.29c-0.071,1.973-0.104,4.199-0.104,6.682
		c0,2.488,0,5.357,0,8.625c0,3.198,0.017,6.703,0.054,10.511c0.033,3.812,0.05,7.961,0.05,12.454c0,0.61,0.644,1.462,1.939,2.55
		c1.225,1.022,1.836,2.039,1.836,3.061c0,0.478-0.1,1.055-0.307,1.736c-0.951,2.313-2.824,3.472-5.611,3.472
		c-3.609,0-6.296-1.262-8.065-3.779c-0.951-1.358-1.429-6.088-1.429-14.186v-4.896c0-1.159,0.017-2.11,0.05-2.861
		c0.037-0.747,0.054-1.358,0.054-1.836c0-4.352-0.203-6.599-0.615-6.736h-0.1c-1.022,0-4.186,8.779-9.493,26.333
		c0,0.066-0.033,0.457-0.1,1.171c-0.071,0.714-0.174,1.823-0.307,3.318c-0.137,1.769-0.752,2.994-1.84,3.675
		c-0.814,0.407-1.732,0.61-2.753,0.61c-1.836,0-3.588-0.594-5.258-1.786c-1.665-1.192-2.737-2.604-3.214-4.236
		c-0.544-2.176-0.818-5.918-0.818-11.225v-2.45c0-4.967,0.037-8.638,0.104-11.022c0.066-2.38,0.104-3.505,0.104-3.368
		c-0.137-2.517-0.345-3.846-0.615-3.983c-0.681,1.159-1.325,2.317-1.939,3.472c-0.61,1.159-1.192,2.28-1.736,3.368
		c-1.292,2.654-2.297,5.071-3.011,7.247c-0.714,2.176-1.208,4.149-1.478,5.918c-0.137,0.548-0.203,1.225-0.203,2.043
		c0,0.341,0.017,0.698,0.05,1.071c0.033,0.374,0.054,0.801,0.054,1.275c0.066,0.274,0.1,0.648,0.1,1.121
		c0,1.499-0.39,2.5-1.175,3.011C-329.036,166.006-330.041,166.263-331.266,166.263z"/>
	<path d="M-262.782,124.519c2.72-4.082,5.341-6.121,7.857-6.121c4.556,0,8.434,2.957,11.636,8.879
		c2.787,5.444,4.182,11.499,4.182,18.165c0,7.143-0.918,12.998-2.753,17.554c-2.313,5.855-6.092,8.779-11.329,8.779
		c-3.949,0-7.317-2.043-10.104-6.125c0.066,0.548,0.253,1.275,0.561,2.197c0.307,0.918,0.461,1.615,0.461,2.089
		c0,0.411-0.174,0.851-0.511,1.329c-0.752,0.951-2.384,1.429-4.9,1.429c-3.812,0-6.125-0.851-6.939-2.55
		c-0.203-0.478-0.307-0.988-0.307-1.532c0-0.615,0.237-1.395,0.714-2.346c0.478-0.955,0.714-1.802,0.714-2.554v-53.48
		c0-0.814-0.203-1.798-0.61-2.957c-0.411-1.159-0.615-2.11-0.615-2.857c0-0.681,0.137-1.395,0.411-2.143
		c0.814-2.247,2.753-3.372,5.814-3.372c3.812,0,6.395,1.433,7.758,4.29c0.137,0.341,0.237,0.648,0.307,0.918
		c0.066,0.274,0.1,0.577,0.1,0.918c0,0.752-0.407,1.939-1.221,3.571c-0.818,1.632-1.225,2.928-1.225,3.879V124.519z
		 M-251.453,145.441c0-3.879-0.378-7.413-1.125-10.615c-0.814-3.808-1.973-5.714-3.468-5.714c-1.225,0-2.45,2.043-3.675,6.125
		c-0.615,1.973-1.088,3.792-1.429,5.457c-0.341,1.669-0.511,3.252-0.511,4.747c0,3.675,0.577,7.45,1.736,11.329
		c1.225,4.082,2.517,6.125,3.879,6.125c3.127,0,4.693-3.538,4.693-10.615v-3.472c0-0.814-0.017-1.495-0.05-2.039
		C-251.44,146.226-251.453,145.781-251.453,145.441z"/>
	<path d="M-206.241,122.272c4.149,4.219,6.225,11.4,6.225,21.537c0,7.691-1.462,14.356-4.39,20.004
		c-3.198,6.192-7.753,9.286-13.675,9.286c-5.781,0-10.241-2.787-13.368-8.368c-1.362-2.45-2.384-5.204-3.061-8.268
		c-0.681-3.061-1.022-6.495-1.022-10.307c0-6.665,1.055-12.62,3.164-17.861c2.243-5.714,5.1-9.012,8.571-9.896
		c0.951-0.274,1.89-0.478,2.807-0.615c0.918-0.137,1.89-0.203,2.907-0.203C-213.454,117.579-209.505,119.145-206.241,122.272z
		 M-224.306,144.319c0,2.994,0.066,5.511,0.203,7.55c0.137,2.043,0.307,3.675,0.511,4.9c0.885,4.286,2.72,6.703,5.511,7.247h0.203
		c1.703,0,3.268-2.413,4.697-7.247c0.681-2.45,1.208-4.967,1.582-7.554c0.374-2.583,0.561-5.303,0.561-8.164
		c0-9.115-1.973-13.879-5.918-14.286h-0.307c-1.906,0-3.609,1.939-5.104,5.818C-223.658,136.188-224.306,140.1-224.306,144.319z"/>
	<path d="M-173.072,112.476c0-0.544-0.087-1.121-0.257-1.736c-0.17-0.61-0.494-1.325-0.968-2.143
		c-0.818-1.632-1.225-2.82-1.225-3.571c0-0.544,0.17-1.154,0.511-1.836c1.292-2.857,3.879-4.29,7.758-4.29
		c3.061,0,5,1.125,5.818,3.372c0.203,0.814,0.303,1.528,0.303,2.143c0,0.748-0.203,1.699-0.61,2.857
		c-0.411,1.159-0.615,2.143-0.615,2.957v53.48c0,0.752,0.257,1.599,0.768,2.554c0.511,0.951,0.764,1.732,0.764,2.346
		c0,0.544-0.137,1.055-0.407,1.532c-0.681,1.699-2.994,2.55-6.944,2.55c-2.38,0-4.012-0.478-4.896-1.429
		c-0.274-0.544-0.407-0.984-0.407-1.329c0-0.473,0.15-1.171,0.457-2.089c0.307-0.922,0.494-1.649,0.561-2.197
		c-2.857,4.082-6.225,6.125-10.104,6.125c-5.307,0-9.115-2.924-11.429-8.779c-1.769-4.693-2.654-10.544-2.654-17.554
		c0-6.802,1.391-12.857,4.182-18.165c3.065-5.922,6.906-8.879,11.532-8.879c2.587,0,5.208,2.039,7.861,6.121V112.476z
		 M-179.808,129.112c-1.499,0-2.654,1.906-3.472,5.714c-0.341,1.566-0.594,3.235-0.764,5c-0.17,1.773-0.257,3.642-0.257,5.615
		c0,0.341-0.017,0.785-0.05,1.329s-0.05,1.225-0.05,2.039v3.472c0,7.076,1.532,10.615,4.593,10.615c1.429,0,2.753-2.043,3.978-6.125
		c1.088-3.675,1.636-7.45,1.636-11.329c0-1.495-0.141-3.077-0.411-4.747c-0.27-1.665-0.714-3.484-1.325-5.457
		C-177.291,131.155-178.583,129.112-179.808,129.112z"/>
	<path d="M-142.661,172.384c-1.499,0.951-3.198,1.429-5.104,1.429c-2.313,0-3.978-0.814-5-2.45
		c-1.362-1.973-2.043-7.924-2.043-17.857c0-1.159,0-2.67,0-4.543c0-1.869,0.033-4.066,0.104-6.582
		c0.066-2.587,0.116-4.78,0.154-6.582c0.033-1.802,0.05-3.285,0.05-4.439c0-0.955-0.087-2.126-0.253-3.522
		c-0.174-1.395-0.257-2.4-0.257-3.011c0-2.11,0.748-3.879,2.247-5.307c0.61-0.681,1.769-1.022,3.468-1.022
		c1.703,0,3.385,0.274,5.054,0.818c1.665,0.544,2.737,1.154,3.214,1.836c0.473,0.818,0.714,1.499,0.714,2.043
		c0,0.885-0.511,2.28-1.532,4.182c-0.885,1.703-1.325,3.202-1.325,4.493v27.658c0,1.292,0.341,3.061,1.022,5.307
		c0.336,1.154,0.594,2.126,0.764,2.907c0.17,0.785,0.253,1.379,0.253,1.786C-141.133,170.752-141.639,171.703-142.661,172.384z
		 M-154.908,110.436c0-0.411,0.187-0.988,0.561-1.736c0.374-0.748,0.561-1.395,0.561-1.939c0-0.137,0.017-0.307,0.05-0.511
		c0.033-0.203,0.054-0.473,0.054-0.818c0-0.336-0.021-0.694-0.054-1.071c-0.033-0.374-0.05-0.831-0.05-1.375v-0.615
		c0-1.292,0.341-2.176,1.022-2.654c1.088-0.748,2.857-1.121,5.307-1.121c2.787,0,4.759,0.577,5.918,1.736
		c0.203,0.203,0.307,0.507,0.307,0.918c0,0.544-0.203,1.528-0.615,2.957c-0.203,0.818-0.374,1.516-0.507,2.093
		c-0.137,0.581-0.241,1.038-0.307,1.379v-0.104c0.133,0,0.203,1.395,0.203,4.186c0,1.362-0.407,2.247-1.225,2.654
		c-0.818,0.407-1.802,0.615-2.961,0.615c-1.566,0-3.264-0.374-5.1-1.125C-153.853,113.09-154.908,111.931-154.908,110.436z"/>
	<path d="M-107.146,168.506c-0.478,0.752-2.18,1.669-5.104,2.757c-2.994,1.088-5.681,1.632-8.061,1.632h-0.922
		c-4.626,0-8.302-2.687-11.022-8.061c-2.45-4.697-3.671-10.444-3.671-17.251c0-7.55,1.358-14.049,4.082-19.493
		c3.061-6.188,7.176-9.626,12.346-10.307c0.544-0.066,1.038-0.116,1.483-0.154c0.44-0.033,0.901-0.05,1.375-0.05
		c7.488,0,11.603,4.593,12.351,13.779c0,0.137,0.017,0.303,0.05,0.511c0.033,0.203,0.054,0.407,0.054,0.61
		c0,1.906-0.444,3.912-1.329,6.022c-0.885,2.11-2.143,4.286-3.775,6.532c-4.082,5.511-9.219,9.323-15.411,11.429
		c0.748,2.654,1.292,4.29,1.632,4.9c0.748,1.566,1.939,2.346,3.571,2.346c1.362,0,2.89-0.577,4.593-1.736
		c1.429-1.017,2.346-1.902,2.757-2.654c0.203-0.066,0.473-0.748,0.814-2.039c0.341-1.429,0.988-2.38,1.939-2.857
		c0.411-0.203,0.851-0.307,1.329-0.307c1.429,0,2.857,0.752,4.286,2.247c1.225,1.362,1.836,2.62,1.836,3.775
		c0,0.137-0.017,0.257-0.05,0.357c-0.033,0.104-0.05,0.22-0.05,0.357C-102.59,163.302-104.289,165.852-107.146,168.506z
		 M-122.864,133.194c-1.769,3.945-2.654,7.928-2.654,11.939c0,0.345,0,0.702,0,1.071c0,0.378,0.033,0.735,0.104,1.076
		c2.924-0.955,5.648-3.131,8.164-6.532c2.517-3.401,3.775-6.499,3.775-9.29c0-2.38-1.121-3.571-3.368-3.571
		C-119.359,127.887-121.369,129.656-122.864,133.194z"/>
	<path d="M-77.852,112.476c0-0.544-0.087-1.121-0.257-1.736c-0.17-0.61-0.494-1.325-0.968-2.143
		c-0.818-1.632-1.225-2.82-1.225-3.571c0-0.544,0.17-1.154,0.511-1.836c1.292-2.857,3.879-4.29,7.758-4.29
		c3.061,0,5,1.125,5.818,3.372c0.203,0.814,0.303,1.528,0.303,2.143c0,0.748-0.203,1.699-0.61,2.857
		c-0.411,1.159-0.615,2.143-0.615,2.957v53.48c0,0.752,0.257,1.599,0.768,2.554c0.511,0.951,0.764,1.732,0.764,2.346
		c0,0.544-0.137,1.055-0.407,1.532c-0.681,1.699-2.994,2.55-6.944,2.55c-2.38,0-4.012-0.478-4.896-1.429
		c-0.274-0.544-0.407-0.984-0.407-1.329c0-0.473,0.149-1.171,0.457-2.089c0.307-0.922,0.494-1.649,0.561-2.197
		c-2.857,4.082-6.225,6.125-10.104,6.125c-5.307,0-9.115-2.924-11.429-8.779c-1.769-4.693-2.654-10.544-2.654-17.554
		c0-6.802,1.391-12.857,4.182-18.165c3.065-5.922,6.906-8.879,11.532-8.879c2.587,0,5.208,2.039,7.861,6.121V112.476z
		 M-84.588,129.112c-1.499,0-2.654,1.906-3.472,5.714c-0.341,1.566-0.594,3.235-0.764,5c-0.17,1.773-0.257,3.642-0.257,5.615
		c0,0.341-0.017,0.785-0.05,1.329c-0.033,0.544-0.05,1.225-0.05,2.039v3.472c0,7.076,1.532,10.615,4.593,10.615
		c1.429,0,2.753-2.043,3.978-6.125c1.088-3.675,1.636-7.45,1.636-11.329c0-1.495-0.141-3.077-0.411-4.747
		c-0.27-1.665-0.714-3.484-1.325-5.457C-82.071,131.155-83.362,129.112-84.588,129.112z"/>
</g>
<g>
	<path d="M-473.422,258.676c0-0.133,0.237-0.781,0.714-1.939c0-1.358,0-3.127,0-5.307c0-2.176-0.033-4.797-0.104-7.857
		c-0.066-3.061-0.1-5.561-0.1-7.5s0-3.318,0-4.136c-0.071-0.133-0.274-0.523-0.615-1.171c-0.341-0.648-0.885-1.615-1.632-2.911
		c-0.681-1.225-1.022-2.276-1.022-3.164c0-0.407,0.033-0.677,0.104-0.814c0.137-0.748,0.511-1.346,1.121-1.786
		c0.615-0.444,1.225-0.868,1.84-1.275c-0.071-2.587-0.104-5.054-0.104-7.4s0-4.543,0-6.582c0-7.417,0.104-12.824,0.307-16.229
		c-0.544-1.225-0.818-2.143-0.818-2.757c0-1.429,0.951-2.583,2.857-3.468c0.411-0.203,0.901-0.341,1.483-0.407
		c0.577-0.071,1.238-0.104,1.989-0.104c4.967,0,7.961,1.292,8.983,3.879c0.133,0.341,0.203,0.818,0.203,1.429
		c0,0.885-0.548,2.213-1.632,3.978c-0.955,1.57-1.499,2.961-1.636,4.186c-0.066,3.061-0.137,5.885-0.203,8.472s-0.1,4.9-0.1,6.939
		c0,1.362,0.012,2.62,0.05,3.775c0.033,1.159,0.05,2.213,0.05,3.164c3.061-0.544,5.631-1.001,7.708-1.379
		c2.072-0.37,3.588-0.727,4.539-1.071c-0.137-1.699-0.237-3.451-0.303-5.253c-0.071-1.802-0.104-3.692-0.104-5.664
		c0-4.9,0.203-10.208,0.61-15.922c-0.341-0.818-0.561-1.532-0.66-2.143c-0.104-0.615-0.154-1.192-0.154-1.736
		c0-1.836,1.154-3.368,3.468-4.593c0.411-0.203,1.125-0.307,2.147-0.307c2.176,0,4.286,0.511,6.325,1.532
		c2.45,1.292,3.675,2.895,3.675,4.797v0.203c0,0.752-0.544,1.769-1.632,3.065c-1.159,1.221-1.736,2.38-1.736,3.468
		c0,1.703-0.017,3.318-0.05,4.846c-0.037,1.532-0.054,3.011-0.054,4.444c0,5.1,0.104,9.593,0.307,13.472
		c0.478,0.407,0.984,0.934,1.532,1.578c0.544,0.648,1.034,1.312,1.478,1.993c0.44,0.681,0.818,1.375,1.121,2.093
		c0.307,0.714,0.461,1.308,0.461,1.786c0,0.951-0.527,1.682-1.582,2.193c-1.055,0.511-2.06,1.005-3.011,1.478
		c-0.066,0.955-0.12,2.01-0.154,3.164c-0.033,1.159-0.05,2.417-0.05,3.775c0,1.977,0.033,4.186,0.104,6.636
		c0.066,2.45,0.166,5.104,0.303,7.961c0,0.341,0.066,0.731,0.203,1.171c0.137,0.444,0.291,0.922,0.461,1.433
		c0.17,0.507,0.324,0.984,0.461,1.429c0.133,0.44,0.203,0.797,0.203,1.071c0,1.292-1.092,2.346-3.268,3.164
		c-0.407,0.203-0.951,0.303-1.632,0.303c-1.973,0-4.182-0.577-6.632-1.736c-2.724-1.358-4.082-2.924-4.082-4.693
		c0-0.747,0.303-1.786,0.918-3.115c0.61-1.325,1.188-2.633,1.736-3.929v-16.125l-12.658,2.654c0,1.566,0,3.418,0,5.565
		c0,2.143,0.033,4.61,0.104,7.396c0.066,2.791,0.1,4.884,0.1,6.279s0,2.126,0,2.193c0,0.681,0.203,1.84,0.615,3.472
		c0.407,1.566,0.61,2.687,0.61,3.368c0,1.292-0.407,2.313-1.225,3.061c-0.814,0.747-1.973,1.121-3.468,1.121
		c-1.499,0-3.027-0.39-4.593-1.171c-1.566-0.785-2.62-1.653-3.164-2.604C-473.185,259.731-473.422,259.154-473.422,258.676z"/>
	<path d="M-400.963,257.451c-0.478,0.752-2.18,1.669-5.104,2.758c-2.994,1.088-5.681,1.632-8.061,1.632h-0.922
		c-4.626,0-8.302-2.687-11.022-8.061c-2.45-4.697-3.671-10.444-3.671-17.251c0-7.55,1.358-14.049,4.082-19.493
		c3.061-6.188,7.176-9.626,12.346-10.307c0.544-0.066,1.038-0.116,1.483-0.154c0.44-0.033,0.901-0.05,1.375-0.05
		c7.488,0,11.603,4.593,12.351,13.779c0,0.137,0.017,0.303,0.05,0.511c0.033,0.203,0.054,0.407,0.054,0.61
		c0,1.906-0.444,3.912-1.329,6.022c-0.885,2.11-2.143,4.286-3.775,6.532c-4.082,5.511-9.219,9.323-15.411,11.429
		c0.748,2.654,1.292,4.29,1.632,4.9c0.747,1.566,1.939,2.346,3.571,2.346c1.362,0,2.89-0.577,4.593-1.736
		c1.429-1.017,2.346-1.902,2.758-2.654c0.203-0.066,0.473-0.748,0.814-2.039c0.341-1.429,0.988-2.38,1.939-2.857
		c0.411-0.203,0.851-0.307,1.329-0.307c1.429,0,2.857,0.752,4.286,2.247c1.225,1.362,1.836,2.62,1.836,3.775
		c0,0.137-0.017,0.257-0.05,0.357c-0.033,0.104-0.05,0.22-0.05,0.357C-396.408,252.248-398.106,254.797-400.963,257.451z
		 M-416.682,222.14c-1.769,3.945-2.654,7.928-2.654,11.939c0,0.345,0,0.702,0,1.071c0,0.378,0.033,0.735,0.104,1.076
		c2.924-0.955,5.648-3.131,8.164-6.532c2.517-3.401,3.775-6.499,3.775-9.29c0-2.38-1.121-3.571-3.368-3.571
		C-413.177,216.832-415.187,218.601-416.682,222.14z"/>
	<path d="M-358.816,259.698c-1.836-1.022-2.994-2.076-3.468-3.164c-0.137-0.473-0.324-1.308-0.561-2.5
		c-0.241-1.188-0.527-2.807-0.868-4.846c-1.429,3.401-4.153,6.669-8.164,9.797c-4.356,3.127-8.472,4.693-12.351,4.693
		c-5.511,0-9.186-3.264-11.022-9.797c-0.548-1.836-0.818-3.571-0.818-5.204c0-4.356,1.973-8.302,5.922-11.84
		c1.358-1.154,3.061-2.33,5.1-3.522c2.043-1.188,4.527-2.429,7.45-3.725c3.131-1.429,5.631-2.604,7.504-3.522
		c1.869-0.918,3.11-1.615,3.725-2.093c0.27-0.88,0.407-1.902,0.407-3.061c0-1.902-0.577-3.027-1.736-3.368
		c-1.017-0.407-2.11-0.61-3.264-0.61c-1.429,0-3.011,0.374-4.747,1.121c-1.736,0.748-3.692,1.802-5.868,3.164
		c-0.341,0.203-0.764,0.561-1.275,1.071s-1.142,1.208-1.89,2.093c-1.225,1.362-2.384,2.039-3.468,2.039h-0.511
		c-1.566,0-2.928-0.627-4.082-1.885c-1.159-1.258-1.736-2.708-1.736-4.34c0-1.088,0.237-2.006,0.714-2.753
		c1.225-1.973,4.423-4.049,9.593-6.229c6.395-2.583,12.895-3.875,19.493-3.875c4.286,0,7.176,2.006,8.675,6.017
		c0.544,1.362,1.005,3.285,1.379,5.768c0.374,2.483,0.66,5.598,0.868,9.34c0.336,4.489,0.66,8.351,0.968,11.582
		s0.664,5.905,1.071,8.011c0.066,0.681,0.615,1.703,1.632,3.065c0.955,1.292,1.429,2.413,1.429,3.368
		c0,0.27-0.066,0.681-0.203,1.225c-0.681,3.198-2.72,4.797-6.121,4.797C-356.333,260.516-357.591,260.242-358.816,259.698z
		 M-378.816,240.512c-0.681,0.544-1.329,1.105-1.939,1.682c-0.615,0.581-1.225,1.142-1.84,1.686
		c-1.566,1.292-2.346,2.72-2.346,4.286c0,1.159,0.341,2.176,1.022,3.061c0.677,0.885,1.595,1.329,2.753,1.329
		c2.654,0,5.511-1.769,8.576-5.307c3.468-4.082,5.918-8.949,7.346-14.597c-0.478,0.208-1.055,0.478-1.736,0.818
		c-0.61,0.341-1.362,0.731-2.243,1.175c-0.885,0.44-1.906,0.934-3.065,1.478c-1.362,0.748-2.566,1.478-3.621,2.193
		C-376.964,239.029-377.936,239.764-378.816,240.512z"/>
	<path d="M-321.561,201.421c0-0.544-0.087-1.121-0.257-1.736c-0.17-0.61-0.494-1.325-0.968-2.143
		c-0.818-1.632-1.225-2.82-1.225-3.571c0-0.544,0.17-1.154,0.511-1.836c1.292-2.857,3.879-4.29,7.758-4.29
		c3.061,0,5,1.125,5.818,3.372c0.203,0.814,0.303,1.528,0.303,2.143c0,0.748-0.203,1.699-0.61,2.857
		c-0.411,1.159-0.615,2.143-0.615,2.957v53.48c0,0.752,0.257,1.599,0.768,2.554c0.511,0.951,0.764,1.732,0.764,2.346
		c0,0.544-0.137,1.055-0.407,1.532c-0.681,1.699-2.994,2.55-6.944,2.55c-2.38,0-4.012-0.478-4.896-1.429
		c-0.274-0.544-0.407-0.984-0.407-1.329c0-0.473,0.15-1.171,0.457-2.089c0.307-0.922,0.494-1.649,0.561-2.197
		c-2.857,4.082-6.225,6.125-10.104,6.125c-5.307,0-9.115-2.924-11.429-8.779c-1.769-4.693-2.654-10.544-2.654-17.554
		c0-6.802,1.391-12.857,4.182-18.165c3.065-5.922,6.906-8.879,11.532-8.879c2.587,0,5.208,2.039,7.861,6.121V201.421z
		 M-328.297,218.057c-1.499,0-2.654,1.906-3.472,5.714c-0.341,1.566-0.594,3.235-0.764,5c-0.17,1.773-0.257,3.642-0.257,5.615
		c0,0.341-0.017,0.785-0.05,1.329c-0.033,0.544-0.05,1.225-0.05,2.039v3.472c0,7.076,1.532,10.615,4.593,10.615
		c1.429,0,2.753-2.043,3.978-6.125c1.088-3.675,1.636-7.45,1.636-11.329c0-1.495-0.141-3.077-0.411-4.747
		c-0.27-1.665-0.714-3.484-1.325-5.457C-325.78,220.1-327.072,218.057-328.297,218.057z"/>
</g>
</svg>
